<?xml version="1.0" encoding="UTF-8"?>
<svg xmlns="http://www.w3.org/2000/svg" xmlns:xlink="http://www.w3.org/1999/xlink" width="267.5pt" height="267pt" viewBox="0 0 267.5 267" version="1.1">
<g id="surface1">
<path style=" stroke:none;fill-rule:evenodd;fill:rgb(61.914063%,85.9375%,95.701599%);fill-opacity:1;" d="M 194.195313 105.539063 C 194.195313 105.539063 196.585938 105.65625 197.78125 105.65625 C 198.972656 105.65625 201.121094 105.777344 200.828125 105.957031 C 200.527344 106.136719 197.953125 106.914063 197.953125 107.691406 C 197.953125 108.46875 197.300781 108.527344 198.675781 108.527344 C 200.050781 108.527344 202.261719 108.707031 201.722656 109.246094 C 201.183594 109.785156 197.601563 110.023438 197.539063 111.101563 C 197.480469 112.179688 195.988281 114.03125 195.269531 114.511719 C 194.554688 114.988281 193.597656 115.167969 194.554688 116.367188 C 195.507813 117.5625 195.570313 117.621094 194.3125 117.203125 C 193.058594 116.785156 192.523438 116.546875 191.445313 116.546875 C 190.371094 116.546875 186.785156 116.367188 186.546875 115.589844 C 186.308594 114.808594 186.664063 114.152344 185.234375 113.851563 C 183.796875 113.554688 183.078125 112.835938 182.78125 112.476563 C 182.484375 112.117188 182.78125 112.539063 183.496094 112.65625 C 184.21875 112.777344 185.289063 112.894531 185.113281 112.359375 C 184.933594 111.820313 185.171875 112.359375 185.890625 112.65625 C 186.605469 112.957031 187.144531 113.613281 188.578125 113.613281 C 190.011719 113.613281 191.203125 113.851563 192.460938 113.433594 C 193.714844 113.015625 195.867188 112.65625 196.34375 112 C 196.824219 111.339844 198.019531 110.324219 196.703125 108.886719 C 195.390625 107.453125 194.433594 108.410156 193.894531 107.871094 C 193.359375 107.332031 193.777344 107.214844 193.894531 106.675781 C 194.015625 106.136719 194.136719 105.65625 194.195313 105.539063 Z M 178.898438 95.488281 C 178.898438 95.488281 180.746094 96.144531 181.765625 96.746094 C 182.78125 97.34375 183.320313 99.554688 184.574219 99.257813 C 185.828125 98.957031 186.429688 99.019531 185.710938 98.058594 C 184.992188 97.101563 183.738281 95.128906 183.738281 94.472656 C 183.738281 93.8125 183.914063 93.875 184.574219 94.53125 C 185.234375 95.1875 187.5625 96.144531 188.160156 96.144531 C 188.757813 96.144531 189.296875 96.207031 188.9375 95.1875 C 188.578125 94.171875 186.90625 91.242188 186.664063 90.042969 C 186.425781 88.847656 186.785156 89.027344 187.683594 89.566406 C 188.578125 90.105469 189.414063 91 190.492188 92.257813 C 191.566406 93.515625 193.296875 94.589844 194.492188 95.128906 C 195.6875 95.667969 198.136719 96.144531 198.496094 96.085938 C 198.855469 96.027344 199.394531 96.386719 199.871094 97.042969 C 200.347656 97.703125 201.066406 98.597656 200.765625 99.375 C 200.46875 100.152344 200.410156 100.691406 200.648438 101.230469 C 200.886719 101.769531 200.945313 101.769531 200.164063 101.410156 C 199.394531 101.050781 199.328125 100.8125 198.617188 101.113281 C 197.898438 101.410156 196.40625 101.589844 195.390625 101.351563 C 194.371094 101.113281 193.835938 101.46875 193.835938 100.453125 C 193.835938 99.4375 194.371094 97.882813 193.835938 97.28125 C 193.296875 96.683594 192.699219 96.445313 192.761719 97.222656 C 192.820313 98 192.996094 99.976563 192.699219 99.496094 C 192.402344 99.019531 191.386719 98 191.386719 98.777344 C 191.386719 99.554688 191.621094 100.871094 190.730469 100.691406 C 189.828125 100.511719 188.878906 100.632813 188.878906 100.992188 C 188.878906 101.351563 188.9375 102.546875 189.652344 102.425781 C 190.371094 102.308594 191.863281 101.351563 191.683594 101.769531 C 191.507813 102.1875 191.507813 102.785156 192.222656 102.847656 C 192.941406 102.90625 192.761719 103.625 191.621094 103.804688 C 190.492188 103.984375 189.828125 103.863281 189.59375 104.519531 C 189.355469 105.179688 190.910156 106.613281 190.371094 106.613281 C 189.828125 106.613281 189.476563 106.433594 188.398438 105.476563 C 187.324219 104.519531 187.324219 104.582031 185.890625 103.984375 C 184.453125 103.382813 184.15625 103.144531 183.078125 102.246094 C 182.007813 101.351563 178.898438 100.09375 178.839844 99.4375 C 178.78125 98.777344 179.019531 95.488281 178.898438 95.488281 Z M 169.460938 102.488281 C 169.460938 102.488281 171.3125 101.289063 171.3125 99.617188 C 171.3125 97.941406 171.96875 95.367188 171.074219 94.832031 C 170.175781 94.292969 168.503906 93.453125 169.039063 93.15625 C 169.578125 92.855469 171.550781 92.4375 170.894531 91.957031 C 170.234375 91.480469 170.234375 90.285156 169.996094 89.984375 C 169.757813 89.6875 169.101563 89.984375 168.980469 89.328125 C 168.863281 88.667969 168.742188 88.308594 169.160156 88.25 C 169.578125 88.191406 170.714844 87.890625 170.714844 87.234375 C 170.714844 86.574219 170.59375 86.214844 171.074219 85.855469 C 171.550781 85.5 172.6875 85.257813 172.6875 84.71875 C 172.6875 84.183594 172.269531 84.242188 173.222656 84.183594 C 174.179688 84.121094 175.316406 84.300781 175.136719 84.71875 C 174.953125 85.140625 172.386719 87.351563 172.386719 87.351563 C 172.386719 87.351563 175.195313 86.992188 175.195313 87.53125 C 175.195313 88.070313 174.476563 89.148438 173.285156 89.148438 C 172.089844 89.148438 171.96875 89.207031 172.328125 89.984375 C 172.6875 90.761719 172.925781 91.0625 173.941406 90.882813 C 174.953125 90.703125 176.746094 91.179688 176.628906 91.539063 C 176.507813 91.898438 174.953125 92.136719 174.179688 93.035156 C 173.402344 93.933594 173.703125 95.667969 174.539063 96.863281 C 175.371094 98.058594 180.871094 101.949219 180.871094 102.546875 C 180.871094 103.144531 180.871094 103.503906 180.273438 102.90625 C 179.675781 102.308594 178.242188 101.171875 176.746094 101.171875 C 175.253906 101.171875 173.578125 100.8125 172.804688 101.828125 C 172.027344 102.847656 171.550781 102.847656 169.460938 102.488281 Z M 127.414063 84.949219 C 127.414063 84.949219 127.21875 86.234375 127.453125 86.875 C 127.691406 87.519531 127.824219 88.902344 129.203125 89.105469 C 130.59375 89.308594 131.640625 88.53125 131.402344 89.207031 C 131.164063 89.882813 131.839844 91.472656 131.066406 90.933594 C 130.289063 90.390625 129.511719 89.308594 128.160156 89.308594 C 126.8125 89.308594 126.675781 89.511719 127.015625 90.695313 C 127.351563 91.878906 128.703125 92.992188 128.328125 93.027344 C 127.960938 93.0625 126.675781 93.09375 126.304688 92.789063 C 125.933594 92.488281 125.867188 91.910156 125.394531 91.910156 C 124.921875 91.910156 124.28125 91.910156 124.210938 91.234375 C 124.144531 90.558594 124.113281 87.585938 124.347656 87.347656 C 124.578125 87.113281 125.867188 86.910156 125.699219 86.335938 C 125.527344 85.761719 124.785156 85.523438 125.257813 85.253906 C 125.730469 84.984375 126.574219 84.746094 127.117188 84.714844 C 127.65625 84.679688 127.386719 85.015625 127.414063 84.949219 Z M 134.472656 82.988281 C 134.472656 82.988281 133.96875 85.289063 134.914063 85.964844 C 135.859375 86.640625 137.34375 88.195313 137.203125 88.5 C 137.074219 88.800781 137.140625 89.242188 136.566406 89.277344 C 135.992188 89.308594 135.316406 89.578125 135.386719 90.222656 C 135.453125 90.863281 135.960938 91 135.722656 91.910156 C 135.488281 92.824219 135.488281 93.566406 136.027344 93.5 C 136.566406 93.433594 139.132813 93.128906 139.839844 92.554688 C 140.550781 91.980469 140.753906 91.507813 140.246094 91.167969 C 139.738281 90.832031 138.621094 89.546875 138.421875 88.871094 C 138.222656 88.195313 137.445313 86.132813 136.871094 85.726563 C 136.296875 85.320313 135.589844 85.320313 135.285156 84.511719 C 134.980469 83.699219 134.539063 82.078125 134.472656 82.988281 Z M 108.15625 90.980469 C 108.15625 90.980469 109.328125 90.007813 111.199219 90.25 C 115.9375 90.867188 118.910156 91.339844 120.402344 86.4375 C 120.6875 85.507813 121.214844 85.019531 121.453125 85.101563 C 121.703125 85.183594 122.1875 85.710938 121.945313 86.4375 C 121.703125 87.167969 120.648438 89.804688 121.132813 90.695313 C 121.621094 91.589844 123.566406 93.414063 124.539063 93.898438 C 125.511719 94.386719 127.054688 95.601563 128.433594 95.199219 C 129.8125 94.792969 130.90625 94.304688 131.066406 94.101563 C 131.230469 93.898438 130.824219 94.023438 131.554688 94.589844 C 132.285156 95.15625 132.324219 95.886719 134.191406 95.523438 C 136.054688 95.15625 140.882813 93.941406 142.261719 93.898438 C 143.636719 93.859375 144.203125 94.347656 144.613281 94.628906 C 145.015625 94.914063 146.152344 94.953125 146.152344 94.589844 C 146.152344 94.226563 146.273438 93.738281 145.867188 93.292969 C 145.464844 92.847656 145.503906 92.074219 146.03125 91.425781 C 146.558594 90.777344 147.371094 90.292969 148.179688 90.089844 C 148.992188 89.886719 150.695313 89.5625 148.828125 89.398438 C 146.964844 89.238281 145.828125 88.75 144.613281 89.398438 C 143.394531 90.046875 143.71875 89.96875 143.394531 89.074219 C 143.070313 88.183594 143.476563 88.589844 142.703125 87.859375 C 141.933594 87.128906 141.410156 86.113281 140.839844 85.507813 C 140.273438 84.898438 140.394531 84.574219 139.421875 83.84375 C 138.449219 83.113281 135.609375 81.695313 136.21875 81.695313 C 136.828125 81.695313 140.558594 83.234375 141.488281 83.640625 C 142.421875 84.046875 144.652344 85.101563 145.789063 85.140625 C 146.921875 85.183594 150.53125 85.710938 150.898438 85.34375 C 151.261719 84.980469 152.4375 82.789063 152.152344 82.261719 C 151.871094 81.734375 151.101563 80.640625 150.410156 80.640625 C 149.722656 80.640625 148.421875 79.828125 149.679688 79.667969 C 150.9375 79.503906 156.289063 79.789063 156.328125 80.355469 C 156.371094 80.925781 156.9375 81.085938 156.9375 82.179688 C 156.9375 83.277344 157.664063 83.964844 156.898438 84.492188 C 156.128906 85.019531 154.789063 85.464844 154.789063 86.195313 C 154.789063 86.925781 155.113281 88.75 154.628906 89.074219 C 154.140625 89.398438 152.4375 90.007813 152.074219 90.738281 C 151.703125 91.46875 151.34375 93.046875 151.585938 94.101563 C 151.828125 95.15625 153.453125 98.035156 151.789063 97.914063 C 150.121094 97.792969 147.570313 96.902344 146.355469 96.699219 C 145.140625 96.496094 143.070313 95.601563 138.976563 96.332031 C 134.878906 97.0625 134.191406 97.386719 133.621094 97.386719 C 133.054688 97.386719 133.296875 98.644531 132.691406 98.644531 C 132.078125 98.644531 130.988281 99.210938 130.09375 98.605469 C 129.203125 97.996094 128.269531 97.753906 127.824219 97.753906 C 127.378906 97.753906 127.214844 97.875 127.136719 98.320313 C 127.054688 98.765625 126.769531 99.007813 126.203125 98.726563 C 125.632813 98.441406 126.121094 98.480469 126.121094 98.480469 C 126.121094 98.480469 125.59375 98.15625 124.660156 98.359375 C 123.730469 98.5625 121.824219 99.292969 121.824219 98.96875 C 121.824219 98.644531 121.253906 95.601563 119.390625 94.628906 C 116.269531 93.003906 111.6875 91.632813 108.15625 90.980469 Z M 108.15625 90.980469 "/>
<path style=" stroke:none;fill-rule:evenodd;fill:rgb(61.914063%,85.9375%,95.701599%);fill-opacity:1;" d="M 133.789063 40.898438 C 171.03125 40.898438 203.144531 62.808594 217.90625 94.40625 L 220.714844 112.144531 C 211.539063 94.796875 207.714844 98.492188 197.074219 94.523438 C 194.410156 93.535156 192.703125 88.414063 191.445313 87.035156 C 188.953125 84.3125 188.335938 84.746094 185.996094 85.074219 C 181.234375 84.8125 179.371094 80.109375 175.632813 76.117188 C 173.902344 74.265625 165.226563 82.378906 154.496094 77.207031 C 154.367188 77.144531 153.140625 74.847656 151.488281 75.128906 C 149.664063 75.441406 149.175781 73.835938 149.371094 73.394531 C 150.089844 71.808594 147.949219 71.496094 147.296875 71.769531 C 146.820313 71.96875 143.324219 73.421875 142.9375 70.246094 C 142.726563 68.503906 139.71875 69.957031 138.289063 70.460938 C 128.054688 79.835938 117.644531 86.628906 101.84375 88.0625 C 91.429688 90.9375 82.90625 94.261719 72.492188 97.140625 C 63.464844 101.902344 54.4375 106.664063 45.410156 111.421875 L 43.804688 110.941406 C 53.882813 70.710938 90.351563 40.898438 133.789063 40.898438 Z M 133.789063 40.898438 "/>
<path style="fill-rule:evenodd;fill:rgb(6.272888%,16.479492%,51.367188%);fill-opacity:1;stroke-width:2.16;stroke-linecap:butt;stroke-linejoin:miter;stroke:rgb(6.272888%,16.479492%,51.367188%);stroke-opacity:1;stroke-miterlimit:4;" d="M 460.078125 1574.648438 C 582.304688 1659.21875 673.320313 1733.242188 905.117188 1774.0625 C 1005.117188 1791.679688 1034.0625 1785.742188 1115.585938 1727.773438 C 1168.125 1690.390625 1213.671875 1649.53125 1233.789063 1624.21875 C 1288.203125 1667.148438 1351.210938 1638.125 1418.28125 1683.710938 C 1439.609375 1698.75 1464.84375 1705.625 1520.703125 1647.460938 C 1579.492188 1601.640625 1636.5625 1574.726563 1695.039063 1543.867188 L 1814.0625 1543.867188 C 1957.890625 1471.445313 2097.265625 1365.3125 2241.09375 1237.34375 L 2227.695313 1180.820313 C 2006.445313 1381.71875 1882.695313 1451.5625 1784.296875 1487.304688 C 1741.953125 1493.515625 1755.15625 1463.476563 1803.710938 1401.992188 C 1833.632813 1360.507813 1824.53125 1355.78125 1778.359375 1386.132813 C 1729.0625 1438.90625 1675.742188 1480.273438 1620.3125 1517.617188 C 1572.890625 1549.570313 1524.023438 1578.59375 1474.804688 1609.335938 C 1467.851563 1613.867188 1460.546875 1616.953125 1452.890625 1618.867188 C 1417.890625 1627.5 1374.6875 1610.898438 1315.78125 1587.34375 C 1178.945313 1532.539063 1051.523438 1438.984375 930.234375 1356.367188 C 970.625 1425.898438 1057.617188 1504.453125 1182.578125 1597.226563 C 1103.59375 1687.695313 1008.710938 1726.601563 890.351563 1709.296875 C 708.984375 1682.734375 555.585938 1577.8125 433.28125 1445.664063 Z M 460.078125 1574.648438 " transform="matrix(0.1,0,0,-0.1,0,267)"/>
<path style="fill-rule:evenodd;fill:rgb(100%,100%,100%);fill-opacity:1;stroke-width:2;stroke-linecap:butt;stroke-linejoin:miter;stroke:rgb(0%,0%,0%);stroke-opacity:1;stroke-miterlimit:4;" d="M 1670.15625 1135.234375 L 1668.28125 1203.515625 L 1731.171875 1321.71875 L 1817.460938 1366.484375 L 1683.164063 1479.84375 L 1689.882813 1317.265625 L 1672.03125 1300.859375 L 1669.023438 1505.976563 L 1685.78125 1575.703125 L 1664.960938 1622.695313 L 1657.148438 1799.101563 L 1628.125 1791.289063 L 1623.632813 1615.976563 L 1615.46875 1569.375 C 1619.0625 1546.25 1622.617188 1523.085938 1626.210938 1499.960938 C 1629.921875 1476.015625 1631.757813 1454.023438 1632.34375 1429.804688 C 1633.984375 1364.0625 1635.585938 1298.320313 1637.1875 1232.578125 C 1637.539063 1219.296875 1638.359375 1209.960938 1633.945313 1197.539063 C 1631.132813 1189.53125 1628.28125 1181.5625 1625.46875 1173.554688 C 1620.703125 1159.960938 1620.9375 1161.09375 1630.742188 1150.46875 C 1638.242188 1142.34375 1645.742188 1134.21875 1653.242188 1126.054688 C 1661.054688 1117.578125 1670.507813 1134.882813 1670.15625 1135.234375 Z M 1670.15625 1135.234375 " transform="matrix(0.1,0,0,-0.1,0,267)"/>
<path style="fill-rule:evenodd;fill:rgb(94.139099%,49.414063%,23.925781%);fill-opacity:1;stroke-width:2.16;stroke-linecap:butt;stroke-linejoin:miter;stroke:rgb(94.139099%,49.414063%,23.925781%);stroke-opacity:1;stroke-miterlimit:4;" d="M 514.6875 993.984375 C 515.78125 1053.476563 516.835938 1112.96875 517.890625 1172.5 C 546.796875 1172.109375 575.625 1171.757813 604.492188 1171.40625 C 604.84375 1177.1875 605.195313 1182.929688 605.546875 1188.710938 C 716.992188 1189.0625 828.398438 1189.414063 939.804688 1189.804688 C 939.804688 1194.492188 939.804688 1199.179688 939.804688 1203.867188 C 1003.632813 1204.21875 1067.460938 1204.570313 1131.289063 1204.921875 C 1131.640625 1196.289063 1131.992188 1187.617188 1132.382813 1178.984375 C 1141.015625 1178.984375 1149.6875 1178.984375 1158.28125 1178.984375 C 1159.0625 1056.367188 1159.765625 933.789063 1160.507813 811.171875 C 1175.625 810.46875 1190.78125 809.726563 1205.9375 809.023438 C 1204.960938 862.304688 1204.0625 915.585938 1203.125 968.90625 C 1202.96875 977.65625 1204.0625 977.5 1197.460938 982.460938 C 1183.4375 992.96875 1203.984375 1000.15625 1214.882813 1003.789063 C 1247.03125 1014.414063 1285.195313 1040.15625 1325.859375 1072.148438 C 1331.09375 1076.289063 1332.617188 1077.03125 1339.21875 1077.851563 C 1338.632813 1086.25 1338.007813 1094.648438 1337.382813 1103.007813 C 1344.257813 1103.320313 1351.132813 1103.632813 1357.96875 1103.945313 C 1358.125 1095.703125 1358.28125 1087.460938 1358.4375 1079.21875 C 1367.695313 1078.632813 1370.78125 1074.101563 1378.046875 1068.320313 C 1418.632813 1035.820313 1453.945313 1014.921875 1481.914063 1010.195313 C 1484.492188 1009.453125 1486.757813 1008.75 1488.789063 1008.046875 C 1501.992188 1003.4375 1502.890625 999.0625 1491.640625 995 C 1489.960938 994.414063 1488.125 993.828125 1486.015625 993.242188 C 1487.8125 932.851563 1489.609375 872.460938 1491.367188 812.070313 C 1503.4375 812.070313 1515.507813 812.070313 1527.578125 812.070313 C 1526.640625 875.625 1525.78125 939.21875 1524.960938 1002.8125 C 1525.3125 1007.265625 1525.664063 1011.757813 1526.015625 1016.25 C 1539.296875 1028.828125 1552.578125 1041.367188 1565.859375 1053.945313 C 1575.117188 1062.695313 1572.734375 1060.429688 1583.59375 1055.3125 C 1612.03125 1041.875 1632.382813 1061.054688 1668.164063 1053.984375 C 1667.65625 1096.367188 1667.109375 1138.75 1666.601563 1181.132813 C 1659.101563 1192.539063 1658.28125 1206.09375 1663.007813 1221.445313 C 1687.773438 1288.4375 1729.023438 1340.742188 1812.851563 1365.898438 C 1818.046875 1367.460938 1818.046875 1376.953125 1823.242188 1379.101563 C 1822.96875 1389.101563 1822.734375 1399.101563 1822.460938 1409.101563 C 1822.265625 1417.03125 1822.695313 1424.023438 1823.710938 1431.914063 C 1824.921875 1441.71875 1826.132813 1451.484375 1827.382813 1461.289063 C 1828.867188 1451.757813 1830.351563 1442.226563 1831.835938 1432.695313 C 1833.085938 1424.6875 1833.671875 1417.265625 1833.90625 1409.179688 C 1834.140625 1401.054688 1834.804688 1390.859375 1835.039063 1382.734375 C 1843.046875 1377.34375 1848.125 1372.265625 1852.1875 1364.140625 C 1934.882813 1351.679688 1994.648438 1302.226563 2031.5625 1215.78125 C 2031.5625 1205.585938 2031.5625 1195.429688 2031.5625 1185.273438 C 2031.71875 1173.710938 2031.875 1162.1875 2032.03125 1150.625 C 2043.4375 1149.257813 2054.804688 1147.890625 2066.171875 1146.523438 C 2073.007813 1156.25 2079.84375 1165.976563 2086.640625 1175.742188 C 2090.273438 1180.898438 2091.054688 1183.90625 2092.34375 1190.117188 C 2093.632813 1196.25 2094.882813 1202.382813 2096.171875 1208.515625 C 2097.03125 1202.578125 2097.890625 1196.640625 2098.710938 1190.703125 C 2099.765625 1183.789063 2101.132813 1182.03125 2105.546875 1176.523438 C 2113.4375 1166.679688 2121.328125 1156.875 2129.140625 1147.070313 C 2134.0625 1140.976563 2133.4375 1138.632813 2133.554688 1130.703125 C 2133.710938 1118.59375 2133.984375 1106.484375 2134.140625 1094.375 C 2134.375 1081.914063 2137.34375 1079.726563 2124.296875 1077.929688 C 2106.367188 1075.429688 2088.671875 1077.5 2071.09375 1081.914063 C 2061.054688 1084.453125 2063.476563 1086.640625 2063.007813 1096.757813 C 2062.851563 1100.078125 2062.695313 1103.398438 2062.578125 1106.71875 C 2058.085938 1106.523438 2053.59375 1106.367188 2049.140625 1106.171875 C 2048.945313 1097.578125 2048.789063 1088.945313 2048.59375 1080.351563 C 2106.09375 1051.875 2131.015625 1085.664063 2198.515625 1057.578125 C 2136.132813 955.703125 2073.789063 853.789063 2011.40625 751.914063 C 1764.6875 676.523438 1517.96875 601.171875 1271.210938 525.820313 C 1072.148438 592.460938 873.046875 659.0625 673.90625 725.703125 C 673.90625 725.703125 509.726563 992.265625 514.6875 993.984375 Z M 514.6875 993.984375 " transform="matrix(0.1,0,0,-0.1,0,267)"/>
<path style=" stroke:none;fill-rule:evenodd;fill:rgb(100%,100%,100%);fill-opacity:1;" d="M 93.84375 168.984375 C 95.144531 168.996094 96.449219 169.011719 97.753906 169.023438 C 97.832031 171.898438 97.90625 174.777344 97.984375 177.652344 C 99.132813 177.640625 100.285156 177.625 101.433594 177.613281 C 101.28125 174.789063 101.128906 171.964844 100.976563 169.136719 C 102.203125 169.101563 103.429688 169.0625 104.65625 169.023438 C 104.785156 171.886719 104.910156 174.75 105.039063 177.613281 C 106.085938 177.550781 107.136719 177.484375 108.183594 177.421875 C 108.003906 174.609375 107.828125 171.796875 107.648438 168.984375 C 109.195313 168.996094 110.742188 169.011719 112.289063 169.023438 C 112.59375 176.054688 112.902344 183.085938 113.203125 190.113281 C 116.621094 190.074219 120.035156 190.039063 123.445313 190 C 123.507813 183.195313 123.566406 176.390625 123.621094 169.585938 C 127.214844 167.3125 130.800781 165.039063 134.386719 162.765625 C 138.121094 164.996094 141.855469 167.226563 145.589844 169.460938 C 145.753906 176.300781 145.921875 183.140625 146.089844 189.984375 C 149.636719 189.921875 153.179688 189.859375 156.726563 189.796875 C 156.601563 182.308594 156.476563 174.820313 156.351563 167.332031 C 160.835938 167.414063 165.320313 167.5 169.804688 167.582031 C 169.886719 171.128906 169.972656 174.671875 170.054688 178.21875 C 162.691406 181.464844 160.71875 192.578125 156.074219 198.277344 C 148.1875 207.960938 138.863281 211.332031 128.1875 208.734375 C 117.59375 206.160156 111.472656 194.753906 106.539063 186.167969 C 102.882813 179.410156 99.34375 178.324219 95.886719 180.835938 C 95.441406 181.160156 95.605469 181.160156 95.183594 180.925781 C 94.886719 180.765625 94.5625 180.808594 94.222656 180.960938 C 94.203125 180.308594 94.183594 179.652344 94.160156 178.996094 C 94.15625 178.832031 93.679688 178.9375 93.671875 178.769531 C 93.574219 175.601563 93.648438 172.210938 93.84375 168.984375 Z M 93.84375 168.984375 "/>
<path style="fill-rule:evenodd;fill:rgb(100%,100%,100%);fill-opacity:1;stroke-width:2.16;stroke-linecap:butt;stroke-linejoin:miter;stroke:rgb(94.139099%,49.414063%,23.925781%);stroke-opacity:1;stroke-miterlimit:4;" d="M 1704.53125 897.03125 C 1703.828125 929.179688 1703.085938 961.328125 1702.34375 993.476563 C 1759.53125 1019.765625 1816.757813 1046.054688 1873.984375 1072.34375 C 1884.492188 1077.148438 1889.492188 1076.71875 1900.15625 1072.890625 C 1956.992188 1052.617188 2013.828125 1032.304688 2070.664063 1012.03125 C 2077.851563 1009.453125 2077.539063 1010.15625 2077.851563 1002.539063 C 2078.945313 974.921875 2080.039063 947.34375 2081.132813 919.765625 C 2070.78125 904.21875 2060.546875 893.007813 2050.234375 881.09375 C 2047.03125 880.390625 2042.539063 879.492188 2044.882813 885.859375 C 2049.023438 952.460938 2027.109375 992.421875 1993.867188 1020.820313 C 1941.875 1065.195313 1877.8125 1074.765625 1819.609375 1040.46875 C 1762.34375 1006.757813 1746.210938 943.359375 1748.164063 881.09375 C 1744.257813 875.273438 1704.960938 880.234375 1704.53125 897.03125 Z M 1704.53125 897.03125 " transform="matrix(0.1,0,0,-0.1,0,267)"/>
<path style="fill-rule:evenodd;fill:rgb(100%,79.6875%,0%);fill-opacity:1;stroke-width:2.16;stroke-linecap:butt;stroke-linejoin:miter;stroke:rgb(100%,79.6875%,0%);stroke-opacity:1;stroke-miterlimit:4;" d="M 1572.96875 1081.757813 C 1572.265625 1094.960938 1571.5625 1108.164063 1570.859375 1121.40625 C 1570.15625 1134.492188 1570.234375 1134.6875 1579.492188 1143.984375 C 1591.015625 1155.46875 1602.460938 1166.992188 1613.984375 1178.476563 C 1615.195313 1179.648438 1613.28125 1193.125 1615.390625 1195.234375 C 1615.78125 1195.585938 1621.054688 1185.546875 1621.328125 1185.859375 C 1625.78125 1190.742188 1624.609375 1193.320313 1624.492188 1200.742188 C 1622.460938 1314.375 1620.390625 1427.96875 1618.359375 1541.5625 C 1613.90625 1565.3125 1613.90625 1590.390625 1614.375 1615.625 C 1614.375 1674.296875 1614.375 1732.929688 1614.375 1791.5625 C 1629.648438 1861.875 1629.53125 1959.804688 1635.546875 2046.835938 C 1644.375 1954.921875 1650.195313 1853.4375 1667.304688 1787.578125 C 1669.921875 1729.375 1672.578125 1671.210938 1675.234375 1613.007813 C 1703.164063 1599.570313 1714.296875 1579.648438 1688.4375 1545.546875 C 1685.390625 1467.226563 1688.476563 1390.9375 1693.710938 1315.390625 C 1685.78125 1307.890625 1677.851563 1300.390625 1669.921875 1292.890625 C 1668.164063 1375.351563 1666.601563 1467.148438 1664.84375 1549.609375 C 1684.921875 1562.1875 1682.578125 1595.351563 1658.046875 1602.421875 C 1657.1875 1657.929688 1656.328125 1713.476563 1655.46875 1768.984375 C 1654.960938 1802.96875 1631.210938 1793.554688 1631.796875 1766.25 C 1632.890625 1712.539063 1635.351563 1656.445313 1636.484375 1602.734375 C 1610.625 1588.476563 1612.1875 1559.0625 1637.1875 1547.65625 C 1638.789063 1435.039063 1638.28125 1319.804688 1645.390625 1214.101563 C 1645.976563 1206.40625 1646.445313 1205.46875 1641.914063 1199.453125 C 1615.703125 1164.453125 1631.71875 1148.515625 1654.023438 1135.351563 C 1659.648438 1135.039063 1665.273438 1134.6875 1670.859375 1134.375 C 1671.328125 1123.671875 1671.757813 1112.929688 1672.1875 1102.226563 C 1665.390625 1102.382813 1658.671875 1102.5 1651.914063 1102.65625 C 1651.914063 1102.65625 1651.5625 1085 1651.5625 1073.320313 C 1651.5625 1048.867188 1574.257813 1057.460938 1572.96875 1081.757813 Z M 1572.96875 1081.757813 " transform="matrix(0.1,0,0,-0.1,0,267)"/>
<path style="fill-rule:evenodd;fill:rgb(0%,56.443787%,20.776367%);fill-opacity:1;stroke-width:2.16;stroke-linecap:butt;stroke-linejoin:miter;stroke:rgb(0%,56.443787%,20.776367%);stroke-opacity:1;stroke-miterlimit:4;" d="M 2255.46875 1199.375 C 2189.453125 752.890625 1803.710938 410.078125 1337.890625 410.078125 C 938.164063 410.078125 597.421875 662.539063 467.03125 1016.328125 L 483.867188 1032.03125 C 583.789063 877.695313 692.382813 754.6875 832.03125 743.359375 C 871.679688 747.34375 903.4375 775.117188 927.265625 826.679688 C 978.828125 893.164063 1022.460938 892.148438 1058.203125 823.710938 C 1129.101563 667.96875 1216.40625 599.53125 1311.132813 570.78125 C 1494.0625 562.226563 1584.765625 692.03125 1656.328125 850.507813 C 1698.984375 908.242188 1734.6875 889.296875 1769.414063 859.414063 C 1936.09375 673.75 2151.328125 957.890625 2239.609375 1213.554688 Z M 2255.46875 1199.375 " transform="matrix(0.1,0,0,-0.1,0,267)"/>
<path style="fill-rule:evenodd;fill:rgb(6.272888%,16.479492%,51.367188%);fill-opacity:1;stroke-width:2.16;stroke-linecap:butt;stroke-linejoin:miter;stroke:rgb(6.272888%,16.479492%,51.367188%);stroke-opacity:1;stroke-miterlimit:4;" d="M 1337.890625 2261.015625 C 1850.117188 2261.015625 2265.507813 1846.601563 2265.507813 1335.546875 C 2265.507813 824.53125 1850.117188 410.078125 1337.890625 410.078125 C 825.742188 410.078125 410.351563 824.53125 410.351563 1335.546875 C 410.351563 1846.601563 825.742188 2261.015625 1337.890625 2261.015625 Z M 1337.890625 2220.3125 C 1827.617188 2220.3125 2224.726563 1824.101563 2224.726563 1335.546875 C 2224.726563 846.992188 1827.617188 450.78125 1337.890625 450.78125 C 848.242188 450.78125 451.132813 846.992188 451.132813 1335.546875 C 451.132813 1824.101563 848.242188 2220.3125 1337.890625 2220.3125 Z M 1337.890625 2220.3125 " transform="matrix(0.1,0,0,-0.1,0,267)"/>
<path style="fill-rule:evenodd;fill:rgb(100%,100%,100%);fill-opacity:1;stroke-width:2.16;stroke-linecap:butt;stroke-linejoin:miter;stroke:rgb(100%,100%,100%);stroke-opacity:1;stroke-miterlimit:4;" d="M 1564.84375 1016.054688 C 1610.703125 1014.921875 1656.5625 1013.75 1702.421875 1012.617188 C 1759.335938 1042.460938 1816.210938 1067.8125 1873.164063 1088.320313 C 1888.710938 1093.90625 1896.445313 1090.664063 1911.054688 1085.9375 C 1966.875 1067.851563 2022.734375 1052.5 2078.554688 1027.929688 C 2103.125 1027.773438 2127.695313 1027.617188 2152.304688 1027.460938 C 2156.5625 1024.023438 2154.960938 1021.289063 2152.148438 1018.671875 C 2148.867188 1015.625 2147.851563 1014.609375 2143.515625 1014.570313 C 2124.335938 1014.414063 2105.15625 1014.257813 2085.976563 1014.101563 C 2024.609375 1035.390625 1963.28125 1056.679688 1901.914063 1077.96875 C 1892.617188 1081.210938 1887.34375 1081.914063 1877.65625 1078.046875 C 1820.390625 1055.039063 1762.34375 1028.085938 1703.90625 999.257813 C 1657.03125 1000.742188 1610.234375 1002.226563 1563.359375 1003.710938 C 1563.867188 1007.8125 1564.375 1011.953125 1564.84375 1016.054688 Z M 1564.84375 1016.054688 " transform="matrix(0.1,0,0,-0.1,0,267)"/>
<path style="fill-rule:evenodd;fill:rgb(100%,100%,100%);fill-opacity:1;stroke-width:2.16;stroke-linecap:butt;stroke-linejoin:miter;stroke:rgb(100%,100%,100%);stroke-opacity:1;stroke-miterlimit:4;" d="M 1759.21875 901.601563 C 1760.390625 963.671875 1776.328125 1020.273438 1865.859375 1049.21875 C 1924.609375 1063.164063 1998.515625 1029.101563 2024.6875 974.140625 C 2036.210938 949.921875 2040.742188 917.734375 2040.703125 880.351563 C 2040.664063 868.828125 2043.28125 865.195313 2033.164063 860 C 2026.523438 856.601563 2021.757813 853.164063 2018.242188 849.726563 C 2008.710938 840.390625 2012.265625 841.796875 2011.445313 856.367188 C 2010.273438 877.421875 2009.101563 898.476563 2007.890625 919.570313 C 1994.0625 919.375 1980.195313 919.179688 1966.328125 919.023438 C 1966.328125 887.8125 1966.328125 856.640625 1966.328125 825.429688 C 1966.328125 814.453125 1968.59375 812.773438 1958.28125 808.4375 C 1916.640625 790.703125 1879.53125 792.460938 1844.296875 802.695313 C 1833.046875 805.9375 1833.476563 805.15625 1833.28125 816.679688 C 1832.8125 850.820313 1832.304688 884.921875 1831.835938 919.023438 C 1820.117188 918.476563 1808.4375 917.929688 1796.71875 917.382813 C 1796.875 893.75 1797.03125 870.117188 1797.1875 846.484375 C 1797.265625 834.609375 1788.398438 825.3125 1781.601563 841.210938 C 1781.601563 841.210938 1769.453125 860.351563 1763.125 869.726563 C 1756.71875 879.21875 1759.023438 890.195313 1759.21875 901.601563 Z M 1759.21875 901.601563 " transform="matrix(0.1,0,0,-0.1,0,267)"/>
<path style=" stroke:none;fill-rule:evenodd;fill:rgb(100%,100%,100%);fill-opacity:1;" d="M 133.789063 2.808594 C 206.09375 2.808594 264.726563 61.308594 264.726563 133.445313 C 264.726563 205.582031 206.09375 264.082031 133.789063 264.082031 C 61.492188 264.082031 2.855469 205.582031 2.855469 133.445313 C 2.855469 61.308594 61.492188 2.808594 133.789063 2.808594 Z M 133.789063 6.378906 C 204.117188 6.378906 261.148438 63.28125 261.148438 133.445313 C 261.148438 203.609375 204.117188 260.511719 133.789063 260.511719 C 63.46875 260.511719 6.4375 203.609375 6.4375 133.445313 C 6.4375 63.28125 63.46875 6.378906 133.789063 6.378906 Z M 133.789063 6.378906 "/>
<path style="fill:none;stroke-width:56.693;stroke-linecap:butt;stroke-linejoin:miter;stroke:rgb(100%,100%,100%);stroke-opacity:1;stroke-miterlimit:4;" d="M 1337.890625 2641.914063 C 2060.9375 2641.914063 2647.265625 2056.914063 2647.265625 1335.546875 C 2647.265625 614.179688 2060.9375 29.179688 1337.890625 29.179688 C 614.921875 29.179688 28.554688 614.179688 28.554688 1335.546875 C 28.554688 2056.914063 614.921875 2641.914063 1337.890625 2641.914063 Z M 1337.890625 2606.210938 C 2041.171875 2606.210938 2611.484375 2037.1875 2611.484375 1335.546875 C 2611.484375 633.90625 2041.171875 64.882813 1337.890625 64.882813 C 634.6875 64.882813 64.375 633.90625 64.375 1335.546875 C 64.375 2037.1875 634.6875 2606.210938 1337.890625 2606.210938 Z M 1337.890625 2606.210938 " transform="matrix(0.1,0,0,-0.1,0,267)"/>
<path style="fill-rule:evenodd;fill:rgb(6.272888%,16.479492%,51.367188%);fill-opacity:1;stroke-width:2.16;stroke-linecap:butt;stroke-linejoin:miter;stroke:rgb(6.272888%,16.479492%,51.367188%);stroke-opacity:1;stroke-miterlimit:4;" d="M 1337.890625 2641.914063 C 2060.9375 2641.914063 2647.265625 2056.914063 2647.265625 1335.546875 C 2647.265625 614.179688 2060.9375 29.179688 1337.890625 29.179688 C 614.921875 29.179688 28.554688 614.179688 28.554688 1335.546875 C 28.554688 2056.914063 614.921875 2641.914063 1337.890625 2641.914063 Z M 1337.890625 2606.210938 C 2041.171875 2606.210938 2611.484375 2037.1875 2611.484375 1335.546875 C 2611.484375 633.90625 2041.171875 64.882813 1337.890625 64.882813 C 634.6875 64.882813 64.375 633.90625 64.375 1335.546875 C 64.375 2037.1875 634.6875 2606.210938 1337.890625 2606.210938 Z M 1337.890625 2606.210938 " transform="matrix(0.1,0,0,-0.1,0,267)"/>
<path style=" stroke:none;fill-rule:evenodd;fill:rgb(100%,100%,100%);fill-opacity:1;" d="M 64.164063 157.90625 C 69.089844 157.90625 73.085938 162.148438 73.085938 167.382813 C 73.085938 167.699219 73.070313 168.011719 73.039063 168.320313 L 55.285156 168.320313 C 55.253906 168.011719 55.238281 167.699219 55.238281 167.382813 C 55.238281 162.148438 59.234375 157.90625 64.164063 157.90625 Z M 64.164063 157.90625 "/>
<path style=" stroke:none;fill-rule:evenodd;fill:rgb(100%,100%,100%);fill-opacity:1;" d="M 102.761719 158.089844 C 107.6875 158.089844 111.683594 162.257813 111.683594 167.398438 C 111.683594 167.710938 111.664063 168.015625 111.640625 168.320313 L 93.882813 168.320313 C 93.851563 168.015625 93.835938 167.710938 93.835938 167.398438 C 93.835938 162.257813 97.832031 158.089844 102.761719 158.089844 Z M 102.761719 158.089844 "/>
<path style=" stroke:none;fill-rule:evenodd;fill:rgb(100%,100%,100%);fill-opacity:1;" d="M 83.539063 157.90625 C 88.46875 157.90625 92.464844 162.148438 92.464844 167.382813 C 92.464844 167.699219 92.449219 168.011719 92.417969 168.320313 L 90.949219 168.320313 L 90.949219 166.96875 L 75.839844 166.96875 L 75.839844 168.320313 L 74.664063 168.320313 C 74.632813 168.011719 74.617188 167.699219 74.617188 167.382813 C 74.617188 162.148438 78.613281 157.90625 83.539063 157.90625 Z M 83.539063 157.90625 "/>
<path style=" stroke:none;fill-rule:evenodd;fill:rgb(100%,100%,100%);fill-opacity:1;" d="M 58.972656 177.980469 L 59.019531 169.5625 C 57.785156 168.867188 56.542969 168.929688 55.3125 169.753906 L 55.261719 173.652344 C 55.261719 173.652344 58.972656 178.027344 58.972656 177.980469 Z M 58.972656 177.980469 "/>
<path style=" stroke:none;fill-rule:evenodd;fill:rgb(100%,100%,100%);fill-opacity:1;" d="M 59.304688 178.121094 L 62.632813 178.027344 L 62.539063 169.328125 L 65.582031 169.328125 L 65.769531 177.882813 L 69.480469 177.933594 L 69.289063 169.230469 L 73.519531 169.136719 L 73.519531 178.542969 C 73.519531 179.445313 72.980469 180.539063 73.132813 181.277344 C 73.257813 181.890625 73.53125 182.066406 74.082031 182.070313 L 92.398438 182.164063 C 92.289063 182.980469 92.511719 183.613281 92.660156 184.136719 C 92.902344 184.976563 92.507813 185.457031 92.195313 186.207031 C 89.363281 192.953125 83.539063 193.207031 76.589844 191 C 72.09375 189.570313 59.601563 183.261719 59.304688 178.121094 Z M 59.304688 178.121094 "/>
<path style=" stroke:none;fill-rule:evenodd;fill:rgb(100%,100%,100%);fill-opacity:1;" d="M 74.480469 181.238281 L 75.90625 181.238281 L 75.90625 168.988281 L 74.480469 168.988281 Z M 74.480469 181.238281 "/>
<path style=" stroke:none;fill-rule:evenodd;fill:rgb(100%,100%,100%);fill-opacity:1;" d="M 78.34375 169.109375 L 88.746094 169.109375 L 88.746094 177.96875 L 86.253906 177.96875 L 86.253906 181 L 82.804688 181 L 82.804688 177.96875 L 78.34375 177.96875 Z M 78.34375 169.109375 "/>
<path style="fill-rule:evenodd;fill:rgb(10.594177%,9.812927%,9.423828%);fill-opacity:1;stroke-width:2.16;stroke-linecap:butt;stroke-linejoin:miter;stroke:rgb(10.594177%,9.812927%,9.423828%);stroke-opacity:1;stroke-miterlimit:4;" d="M 1898.359375 1035.664063 C 1911.289063 1035.664063 1921.757813 1025.195313 1921.757813 1012.265625 C 1921.757813 999.375 1911.289063 988.867188 1898.359375 988.867188 C 1885.390625 988.867188 1874.960938 999.375 1874.960938 1012.265625 C 1874.960938 1025.195313 1885.390625 1035.664063 1898.359375 1035.664063 Z M 1898.359375 1039.570313 C 1913.4375 1039.570313 1925.625 1027.34375 1925.625 1012.265625 C 1925.625 997.226563 1913.4375 985 1898.359375 985 C 1883.28125 985 1871.09375 997.226563 1871.09375 1012.265625 C 1871.09375 1027.34375 1883.28125 1039.570313 1898.359375 1039.570313 Z M 1898.359375 1039.570313 " transform="matrix(0.1,0,0,-0.1,0,267)"/>
<path style="fill-rule:evenodd;fill:rgb(10.594177%,9.812927%,9.423828%);fill-opacity:1;stroke-width:2;stroke-linecap:butt;stroke-linejoin:miter;stroke:rgb(0%,0%,0%);stroke-opacity:1;stroke-miterlimit:4;" d="M 1270.46875 949.453125 L 1291.640625 949.257813 L 1284.335938 926.25 L 1264.140625 926.015625 C 1264.140625 926.015625 1270.46875 949.257813 1270.46875 949.453125 Z M 1270.46875 949.453125 " transform="matrix(0.1,0,0,-0.1,0,267)"/>
<path style="fill-rule:evenodd;fill:rgb(10.594177%,9.812927%,9.423828%);fill-opacity:1;stroke-width:2;stroke-linecap:butt;stroke-linejoin:miter;stroke:rgb(0%,0%,0%);stroke-opacity:1;stroke-miterlimit:4;" d="M 1240.507813 949.453125 L 1255.546875 949.257813 L 1250.3125 926.25 L 1236.054688 926.015625 C 1236.054688 926.015625 1240.507813 949.257813 1240.507813 949.453125 Z M 1240.507813 949.453125 " transform="matrix(0.1,0,0,-0.1,0,267)"/>
<path style="fill-rule:evenodd;fill:rgb(10.594177%,9.812927%,9.423828%);fill-opacity:1;stroke-width:2;stroke-linecap:butt;stroke-linejoin:miter;stroke:rgb(0%,0%,0%);stroke-opacity:1;stroke-miterlimit:4;" d="M 1304.648438 949.453125 L 1325.898438 949.257813 L 1318.515625 926.25 L 1298.398438 926.015625 C 1298.398438 926.015625 1304.648438 949.257813 1304.648438 949.453125 Z M 1304.648438 949.453125 " transform="matrix(0.1,0,0,-0.1,0,267)"/>
<path style="fill-rule:evenodd;fill:rgb(10.594177%,9.812927%,9.423828%);fill-opacity:1;stroke-width:2;stroke-linecap:butt;stroke-linejoin:miter;stroke:rgb(0%,0%,0%);stroke-opacity:1;stroke-miterlimit:4;" d="M 1341.210938 949.453125 L 1362.460938 949.257813 L 1355.117188 926.25 L 1334.960938 926.015625 C 1334.960938 926.015625 1341.210938 949.257813 1341.210938 949.453125 Z M 1341.210938 949.453125 " transform="matrix(0.1,0,0,-0.1,0,267)"/>
<path style="fill-rule:evenodd;fill:rgb(10.594177%,9.812927%,9.423828%);fill-opacity:1;stroke-width:2;stroke-linecap:butt;stroke-linejoin:miter;stroke:rgb(0%,0%,0%);stroke-opacity:1;stroke-miterlimit:4;" d="M 1375.664063 949.453125 L 1396.875 949.257813 L 1389.53125 926.25 L 1369.375 926.015625 C 1369.375 926.015625 1375.664063 949.257813 1375.664063 949.453125 Z M 1375.664063 949.453125 " transform="matrix(0.1,0,0,-0.1,0,267)"/>
<path style="fill-rule:evenodd;fill:rgb(10.594177%,9.812927%,9.423828%);fill-opacity:1;stroke-width:2;stroke-linecap:butt;stroke-linejoin:miter;stroke:rgb(0%,0%,0%);stroke-opacity:1;stroke-miterlimit:4;" d="M 1410.078125 949.453125 L 1431.289063 949.257813 L 1423.945313 926.25 L 1403.789063 926.015625 C 1403.789063 926.015625 1410.078125 949.257813 1410.078125 949.453125 Z M 1410.078125 949.453125 " transform="matrix(0.1,0,0,-0.1,0,267)"/>
<path style="fill-rule:evenodd;fill:rgb(10.594177%,9.812927%,9.423828%);fill-opacity:1;stroke-width:2;stroke-linecap:butt;stroke-linejoin:miter;stroke:rgb(0%,0%,0%);stroke-opacity:1;stroke-miterlimit:4;" d="M 1439.335938 949.453125 L 1454.375 949.257813 L 1449.140625 926.25 L 1434.882813 926.015625 C 1434.882813 926.015625 1439.335938 949.257813 1439.335938 949.453125 Z M 1439.335938 949.453125 " transform="matrix(0.1,0,0,-0.1,0,267)"/>
<path style="fill-rule:evenodd;fill:rgb(10.594177%,9.812927%,9.423828%);fill-opacity:1;stroke-width:2;stroke-linecap:butt;stroke-linejoin:miter;stroke:rgb(0%,0%,0%);stroke-opacity:1;stroke-miterlimit:4;" d="M 1310.703125 774.960938 C 1310.390625 798.164063 1310.078125 821.328125 1309.804688 844.53125 C 1309.6875 855.078125 1327.304688 861.796875 1335.664063 865.507813 C 1345.546875 869.84375 1346.484375 869.335938 1356.015625 864.921875 C 1363.4375 861.523438 1386.757813 851.875 1386.757813 842.695313 C 1386.757813 818.984375 1386.757813 795.273438 1386.757813 771.523438 C 1386.757813 758.710938 1405.390625 759.140625 1405.273438 772.695313 C 1405.078125 799.882813 1404.882813 827.03125 1404.648438 854.21875 C 1404.609375 859.453125 1404.296875 859.101563 1400.039063 862.148438 C 1387.1875 871.328125 1375.625 880.742188 1365.703125 890.507813 C 1356.289063 899.804688 1341.992188 899.882813 1332.109375 891.40625 C 1320.390625 881.367188 1307.304688 872.226563 1293.90625 863.28125 C 1288.945313 859.960938 1287.34375 860.585938 1287.34375 854.726563 C 1287.382813 840.351563 1287.578125 792.890625 1287.65625 774.414063 C 1287.734375 757.226563 1310.898438 758.203125 1310.703125 774.960938 Z M 1310.703125 774.960938 " transform="matrix(0.1,0,0,-0.1,0,267)"/>
<path style=" stroke:none;fill-rule:evenodd;fill:rgb(61.914063%,85.9375%,95.701599%);fill-opacity:1;" d="M 117.652344 197.644531 C 123.597656 198.089844 128.84375 197.632813 133.097656 196.117188 L 133.976563 185.28125 C 133.988281 185.140625 133.953125 185.390625 133.121094 185.023438 C 132.289063 184.660156 135.773438 184.664063 136.183594 184.714844 C 136.589844 184.765625 135.539063 184.808594 135.613281 185.308594 L 137.152344 195.90625 C 141.773438 197.128906 146.886719 197.691406 152.488281 197.597656 C 153.84375 197.578125 153.679688 197.515625 152.925781 198.632813 C 150.414063 202.351563 147.171875 205.5625 141.589844 207.148438 C 132.03125 209.867188 122.617188 206.175781 116.90625 198.195313 C 116.210938 197.226563 116.699219 197.574219 117.652344 197.644531 Z M 117.652344 197.644531 "/>
<path style="fill-rule:evenodd;fill:rgb(10.594177%,9.812927%,9.423828%);fill-opacity:1;stroke-width:2;stroke-linecap:butt;stroke-linejoin:miter;stroke:rgb(0%,0%,0%);stroke-opacity:1;stroke-miterlimit:4;" d="M 1331.015625 823.28125 C 1331.015625 828.046875 1331.054688 832.8125 1331.09375 837.539063 C 1331.09375 840.039063 1331.445313 840.664063 1333.28125 842.5 C 1335.585938 844.726563 1338.554688 846.40625 1342.734375 847.109375 C 1349.960938 848.242188 1356.09375 845.9375 1360.46875 840.351563 C 1362.1875 838.164063 1362.226563 837.34375 1362.226563 834.609375 C 1362.226563 830.859375 1362.226563 827.109375 1362.226563 823.359375 C 1359.765625 823.4375 1357.34375 823.515625 1354.882813 823.59375 C 1354.882813 828.476563 1354.882813 833.320313 1354.882813 838.164063 C 1354.882813 841.914063 1336.875 841.953125 1336.875 838.164063 C 1336.875 833.320313 1336.875 828.476563 1336.875 823.59375 C 1336.875 823.59375 1331.015625 823.203125 1331.015625 823.28125 Z M 1331.015625 823.28125 " transform="matrix(0.1,0,0,-0.1,0,267)"/>
<path style="fill-rule:evenodd;fill:rgb(100%,100%,100%);fill-opacity:1;stroke-width:2.16;stroke-linecap:butt;stroke-linejoin:miter;stroke:rgb(94.139099%,49.414063%,23.925781%);stroke-opacity:1;stroke-miterlimit:4;" d="M 1676.992188 1193.398438 C 1737.617188 1229.648438 1978.710938 1226.992188 2010.546875 1196.796875 L 2010.15625 1137.734375 C 2005.625 1137.96875 2001.054688 1138.164063 1996.523438 1138.359375 L 1996.523438 1199.023438 L 1988.046875 1199.023438 L 1988.046875 1138.710938 C 1977.695313 1139.140625 1967.382813 1139.492188 1957.03125 1139.765625 L 1957.03125 1179.0625 C 1957.03125 1185.234375 1951.367188 1190.273438 1944.492188 1190.273438 C 1937.578125 1190.273438 1931.953125 1185.234375 1931.953125 1179.0625 L 1931.953125 1140.3125 C 1921.601563 1140.46875 1911.289063 1140.585938 1900.9375 1140.625 L 1900.9375 1207.421875 L 1892.851563 1207.421875 L 1892.851563 1140.664063 C 1885.78125 1140.664063 1878.789063 1140.664063 1871.757813 1140.585938 L 1870.507813 1178.515625 C 1870.3125 1183.476563 1865.898438 1187.304688 1860.664063 1187.070313 L 1850.78125 1186.601563 C 1845.585938 1186.367188 1841.445313 1182.109375 1841.601563 1177.148438 L 1842.851563 1140.273438 C 1829.648438 1140.039063 1816.40625 1139.6875 1803.203125 1139.257813 L 1803.203125 1204.609375 L 1795.976563 1204.609375 L 1795.976563 1139.023438 C 1790.585938 1138.828125 1785.15625 1138.632813 1779.765625 1138.4375 L 1778.28125 1182.148438 C 1778.085938 1187.96875 1772.890625 1192.460938 1766.757813 1192.1875 L 1755.195313 1191.640625 C 1749.0625 1191.367188 1744.21875 1186.367188 1744.414063 1180.585938 L 1745.859375 1136.835938 C 1734.414063 1136.25 1722.96875 1135.546875 1711.484375 1134.804688 L 1711.484375 1200.585938 L 1704.257813 1200.585938 L 1704.257813 1200.507813 L 1704.140625 1200.507813 L 1704.140625 1134.492188 L 1704.257813 1134.492188 L 1704.257813 1134.335938 C 1696.289063 1133.828125 1688.359375 1133.242188 1680.390625 1132.65625 C 1680.390625 1132.65625 1676.5625 1192.96875 1676.992188 1193.398438 Z M 1676.992188 1193.398438 " transform="matrix(0.1,0,0,-0.1,0,267)"/>
<path style=" stroke:none;fill-rule:evenodd;fill:rgb(100%,100%,100%);fill-opacity:1;" d="M 208.371094 166.210938 C 210.46875 166.039063 212.539063 165.882813 213.96875 166.109375 C 212.683594 169.992188 210.765625 172.671875 208.820313 174.574219 C 208.820313 174.574219 208.371094 166.257813 208.371094 166.210938 Z M 208.371094 166.210938 "/>
<path style="fill-rule:evenodd;fill:rgb(100%,100%,100%);fill-opacity:1;stroke-width:2.16;stroke-linecap:butt;stroke-linejoin:miter;stroke:rgb(100%,79.6875%,0%);stroke-opacity:1;stroke-miterlimit:4;" d="M 1591.054688 1106.523438 L 1596.640625 1106.523438 C 1598.59375 1106.523438 1600.15625 1104.921875 1600.15625 1102.96875 L 1600.15625 1085.585938 C 1600.15625 1083.671875 1598.59375 1082.070313 1596.640625 1082.070313 L 1591.054688 1082.070313 C 1589.101563 1082.070313 1587.539063 1083.671875 1587.539063 1085.585938 L 1587.539063 1102.96875 C 1587.539063 1104.921875 1589.101563 1106.523438 1591.054688 1106.523438 Z M 1614.335938 1104.101563 L 1639.53125 1104.101563 C 1643.59375 1104.101563 1646.875 1100.820313 1646.875 1096.796875 L 1646.875 1084.335938 C 1646.875 1080.3125 1643.59375 1077.03125 1639.53125 1077.03125 L 1614.335938 1077.03125 C 1610.3125 1077.03125 1607.03125 1080.3125 1607.03125 1084.335938 L 1607.03125 1096.796875 C 1607.03125 1100.820313 1610.3125 1104.101563 1614.335938 1104.101563 Z M 1621.523438 1129.257813 L 1644.6875 1129.257813 C 1648.4375 1129.257813 1651.523438 1126.171875 1651.523438 1122.421875 L 1651.523438 1118.007813 C 1651.523438 1114.257813 1648.4375 1111.171875 1644.6875 1111.171875 L 1621.523438 1111.171875 C 1617.734375 1111.171875 1614.6875 1114.257813 1614.6875 1118.007813 L 1614.6875 1122.421875 C 1614.6875 1126.171875 1617.734375 1129.257813 1621.523438 1129.257813 Z M 1621.523438 1129.257813 " transform="matrix(0.1,0,0,-0.1,0,267)"/>
<path style="fill-rule:evenodd;fill:rgb(100%,100%,100%);fill-opacity:1;stroke-width:2.16;stroke-linecap:butt;stroke-linejoin:miter;stroke:rgb(94.139099%,49.414063%,23.925781%);stroke-opacity:1;stroke-miterlimit:4;" d="M 2074.414063 1122.851563 L 2079.960938 1122.851563 C 2081.953125 1122.851563 2083.515625 1121.289063 2083.515625 1119.335938 L 2083.515625 1101.953125 C 2083.515625 1100.039063 2081.953125 1098.4375 2079.960938 1098.4375 L 2074.414063 1098.4375 C 2072.460938 1098.4375 2070.898438 1100.039063 2070.898438 1101.953125 L 2070.898438 1119.335938 C 2070.898438 1121.289063 2072.460938 1122.851563 2074.414063 1122.851563 Z M 2097.695313 1120.429688 L 2122.890625 1120.429688 C 2126.953125 1120.429688 2130.234375 1117.1875 2130.234375 1113.164063 L 2130.234375 1100.664063 C 2130.234375 1096.679688 2126.953125 1093.398438 2122.890625 1093.398438 L 2097.695313 1093.398438 C 2093.671875 1093.398438 2090.390625 1096.679688 2090.390625 1100.664063 L 2090.390625 1113.164063 C 2090.390625 1117.1875 2093.671875 1120.429688 2097.695313 1120.429688 Z M 2104.882813 1145.625 L 2128.046875 1145.625 C 2131.796875 1145.625 2134.882813 1142.539063 2134.882813 1138.789063 L 2134.882813 1134.375 C 2134.882813 1130.585938 2131.796875 1127.539063 2128.046875 1127.539063 L 2104.882813 1127.539063 C 2101.09375 1127.539063 2098.046875 1130.585938 2098.046875 1134.375 L 2098.046875 1138.789063 C 2098.046875 1142.539063 2101.09375 1145.625 2104.882813 1145.625 Z M 2104.882813 1145.625 " transform="matrix(0.1,0,0,-0.1,0,267)"/>
<path style="fill-rule:evenodd;fill:rgb(10.594177%,9.812927%,9.423828%);fill-opacity:1;stroke-width:2;stroke-linecap:butt;stroke-linejoin:miter;stroke:rgb(0%,0%,0%);stroke-opacity:1;stroke-miterlimit:4;" d="M 1306.601563 964.453125 C 1306.40625 975.429688 1306.210938 986.40625 1306.015625 997.382813 C 1298.671875 1002.96875 1303.007813 1009.882813 1308.984375 1016.953125 C 1315.585938 1017.734375 1322.226563 1018.515625 1328.828125 1019.335938 C 1324.492188 1011.875 1324.21875 1006.640625 1327.96875 1003.59375 C 1335.46875 1008.203125 1342.96875 1008.28125 1350.507813 1006.289063 C 1350.3125 1010.625 1350.117188 1014.960938 1349.921875 1019.335938 C 1356.328125 1019.21875 1362.773438 1019.140625 1369.140625 1019.023438 C 1369.296875 1015.078125 1369.375 1011.132813 1369.492188 1007.148438 C 1377.226563 1004.882813 1377.226563 1001.132813 1369.492188 995.898438 C 1369.53125 985.507813 1369.6875 975.117188 1369.765625 964.726563 C 1365.9375 965.234375 1362.03125 965.742188 1358.203125 966.210938 C 1360.625 975.507813 1360.78125 984.804688 1355.78125 994.101563 C 1343.671875 994.21875 1331.523438 994.296875 1319.335938 994.414063 C 1313.164063 986.289063 1312.1875 976.25 1311.914063 965.9375 C 1311.914063 965.9375 1306.875 964.453125 1306.601563 964.453125 Z M 1306.601563 964.453125 " transform="matrix(0.1,0,0,-0.1,0,267)"/>
<path style=" stroke:none;fill-rule:evenodd;fill:rgb(6.272888%,16.479492%,51.367188%);fill-opacity:1;" d="M 15.613281 148.859375 L 14.265625 130.121094 L 19.332031 129.777344 L 19.78125 136.066406 L 35.21875 135.015625 L 35.660156 141.179688 L 20.226563 142.230469 L 20.671875 148.511719 Z M 34.324219 112.4375 L 32.945313 119.347656 L 36.085938 120.929688 L 34.847656 127.125 L 16.148438 115.933594 L 17.46875 109.320313 L 39.113281 105.753906 L 37.847656 112.101563 Z M 29.707031 112.882813 L 22.023438 113.683594 L 28.84375 117.210938 Z M 21.449219 93.410156 L 24.03125 87.761719 L 38.179688 93.890625 L 42.210938 85.082031 L 46.835938 87.085938 L 40.21875 101.542969 Z M 53.851563 70.207031 L 49.703125 75.972656 L 51.910156 78.660156 L 48.191406 83.832031 L 35.785156 66.207031 L 39.757813 60.6875 L 61.019531 66 L 57.210938 71.296875 Z M 49.449219 68.785156 L 42.09375 66.476563 L 46.847656 72.398438 Z M 59.324219 58.953125 L 63.636719 54.816406 C 64.371094 55.453125 65.070313 55.832031 65.710938 55.953125 C 66.746094 56.148438 67.726563 55.855469 68.644531 55.078125 C 69.324219 54.5 69.714844 53.898438 69.808594 53.273438 C 69.894531 52.648438 69.757813 52.128906 69.390625 51.71875 C 69.039063 51.328125 68.554688 51.125 67.917969 51.113281 C 67.289063 51.105469 66.21875 51.503906 64.6875 52.316406 C 62.171875 53.632813 60.132813 54.292969 58.554688 54.289063 C 56.972656 54.289063 55.65625 53.703125 54.601563 52.519531 C 53.90625 51.746094 53.480469 50.816406 53.328125 49.734375 C 53.171875 48.65625 53.386719 47.527344 53.957031 46.347656 C 54.535156 45.167969 55.628906 43.894531 57.242188 42.53125 C 59.226563 40.851563 61.058594 39.933594 62.738281 39.769531 C 64.417969 39.605469 66.058594 40.226563 67.652344 41.621094 L 63.363281 45.699219 C 62.640625 45.121094 61.945313 44.839844 61.28125 44.859375 C 60.621094 44.875 59.957031 45.171875 59.28125 45.742188 C 58.722656 46.214844 58.402344 46.679688 58.328125 47.152344 C 58.253906 47.617188 58.363281 48.019531 58.65625 48.347656 C 58.871094 48.585938 59.179688 48.703125 59.582031 48.703125 C 59.988281 48.710938 60.6875 48.441406 61.6875 47.894531 C 64.171875 46.5625 66.070313 45.742188 67.378906 45.425781 C 68.6875 45.109375 69.84375 45.105469 70.851563 45.421875 C 71.855469 45.738281 72.730469 46.308594 73.46875 47.132813 C 74.332031 48.097656 74.851563 49.226563 75.03125 50.507813 C 75.214844 51.789063 74.996094 53.058594 74.382813 54.316406 C 73.777344 55.574219 72.71875 56.835938 71.214844 58.109375 C 68.578125 60.335938 66.3125 61.390625 64.414063 61.257813 C 62.511719 61.132813 60.820313 60.363281 59.324219 58.953125 Z M 83.863281 25.992188 L 94.886719 21.660156 C 96.722656 20.9375 98.316406 20.828125 99.664063 21.328125 C 101.015625 21.824219 101.964844 22.726563 102.503906 24.03125 C 102.960938 25.128906 102.996094 26.207031 102.621094 27.269531 C 102.371094 27.976563 101.863281 28.65625 101.085938 29.3125 C 102.585938 29.097656 103.820313 29.253906 104.789063 29.777344 C 105.761719 30.304688 106.492188 31.15625 106.980469 32.335938 C 107.378906 33.296875 107.507813 34.25 107.371094 35.199219 C 107.226563 36.148438 106.851563 37 106.242188 37.761719 C 105.863281 38.230469 105.203125 38.726563 104.253906 39.246094 C 102.996094 39.9375 102.15625 40.367188 101.722656 40.539063 L 91.558594 44.535156 Z M 92.820313 30.933594 L 95.378906 29.925781 C 96.296875 29.566406 96.871094 29.15625 97.109375 28.707031 C 97.339844 28.257813 97.332031 27.742188 97.09375 27.164063 C 96.867188 26.625 96.515625 26.269531 96.03125 26.109375 C 95.539063 25.945313 94.851563 26.042969 93.960938 26.390625 L 91.359375 27.414063 Z M 95.84375 38.214844 L 98.847656 37.035156 C 99.863281 36.632813 100.507813 36.179688 100.773438 35.667969 C 101.046875 35.15625 101.058594 34.601563 100.8125 34.011719 C 100.585938 33.464844 100.199219 33.101563 99.648438 32.933594 C 99.097656 32.761719 98.308594 32.875 97.273438 33.28125 L 94.285156 34.457031 Z M 112.640625 16.828125 L 129.527344 14.8125 L 130.0625 19.050781 L 119.492188 20.3125 L 119.886719 23.46875 L 129.695313 22.296875 L 130.203125 26.34375 L 120.398438 27.515625 L 120.894531 31.425781 L 131.773438 30.125 L 132.339844 34.621094 L 115.144531 36.675781 Z M 140.679688 15.089844 L 146.984375 15.84375 L 145.097656 30.804688 L 154.933594 31.976563 L 154.316406 36.867188 L 138.175781 34.9375 Z M 166.480469 19.519531 L 182.566406 24.90625 L 181.140625 28.945313 L 171.070313 25.570313 L 170.007813 28.578125 L 179.347656 31.707031 L 177.984375 35.5625 L 168.640625 32.433594 L 167.324219 36.15625 L 177.6875 39.628906 L 176.171875 43.914063 L 159.789063 38.425781 Z M 193.535156 30.65625 L 201.164063 36.054688 C 202.664063 37.117188 203.734375 38.175781 204.371094 39.226563 C 204.996094 40.28125 205.335938 41.390625 205.386719 42.558594 C 205.433594 43.734375 205.226563 44.902344 204.765625 46.085938 C 204.300781 47.265625 203.65625 48.402344 202.828125 49.507813 C 201.539063 51.234375 200.339844 52.433594 199.222656 53.101563 C 198.109375 53.769531 196.949219 54.167969 195.753906 54.300781 C 194.554688 54.4375 193.464844 54.324219 192.480469 53.957031 C 191.132813 53.453125 190.003906 52.878906 189.089844 52.230469 L 181.453125 46.835938 Z M 195.933594 37.953125 L 189.335938 46.789063 L 190.59375 47.679688 C 191.671875 48.441406 192.519531 48.867188 193.144531 48.953125 C 193.769531 49.042969 194.429688 48.886719 195.121094 48.496094 C 195.804688 48.101563 196.632813 47.253906 197.601563 45.957031 C 198.878906 44.242188 199.46875 42.867188 199.367188 41.832031 C 199.261719 40.789063 198.546875 39.800781 197.214844 38.859375 Z M 216.347656 48.148438 L 220.6875 52.675781 L 205.660156 66.3125 L 201.320313 61.785156 Z M 221.039063 45.265625 L 224.046875 48.398438 L 220.972656 51.191406 L 217.96875 48.058594 Z M 226.695313 58.742188 L 230.535156 64.496094 L 226.976563 71.558594 L 235.054688 71.265625 L 238.871094 76.988281 L 224.503906 76.796875 L 217.285156 81.355469 L 213.820313 76.164063 L 221.039063 71.601563 Z M 242.976563 85.691406 L 248.515625 101.347656 L 244.367188 102.738281 L 240.902344 92.9375 L 237.8125 93.972656 L 241.027344 103.0625 L 237.066406 104.390625 L 233.847656 95.300781 L 230.023438 96.582031 L 233.589844 106.667969 L 229.1875 108.144531 L 223.550781 92.203125 Z M 237.257813 111.945313 L 238.371094 117.734375 C 237.410156 117.976563 236.703125 118.324219 236.238281 118.773438 C 235.492188 119.5 235.199219 120.457031 235.347656 121.628906 C 235.453125 122.503906 235.746094 123.152344 236.234375 123.578125 C 236.714844 124 237.234375 124.175781 237.789063 124.109375 C 238.316406 124.046875 238.761719 123.769531 239.121094 123.265625 C 239.484375 122.761719 239.746094 121.671875 239.910156 119.980469 C 240.191406 117.21875 240.773438 115.203125 241.660156 113.933594 C 242.539063 112.652344 243.78125 111.917969 245.371094 111.730469 C 246.425781 111.605469 247.453125 111.78125 248.460938 112.261719 C 249.464844 112.742188 250.308594 113.542969 250.996094 114.664063 C 251.675781 115.789063 252.148438 117.382813 252.410156 119.449219 C 252.730469 121.984375 252.488281 123.980469 251.6875 125.425781 C 250.886719 126.875 249.445313 127.847656 247.363281 128.355469 L 246.289063 122.617188 C 247.183594 122.351563 247.8125 121.949219 248.164063 121.40625 C 248.519531 120.867188 248.644531 120.160156 248.535156 119.296875 C 248.445313 118.582031 248.222656 118.0625 247.867188 117.742188 C 247.511719 117.417969 247.109375 117.28125 246.664063 117.335938 C 246.339844 117.375 246.070313 117.558594 245.84375 117.882813 C 245.609375 118.207031 245.449219 118.921875 245.355469 120.035156 C 245.097656 122.785156 244.738281 124.773438 244.277344 126.007813 C 243.816406 127.238281 243.171875 128.175781 242.335938 128.808594 C 241.503906 129.445313 240.53125 129.832031 239.414063 129.964844 C 238.109375 130.121094 236.859375 129.910156 235.664063 129.339844 C 234.472656 128.769531 233.511719 127.886719 232.785156 126.6875 C 232.054688 125.492188 231.570313 123.933594 231.324219 122.011719 C 230.898438 118.636719 231.269531 116.21875 232.445313 114.761719 C 233.613281 113.296875 235.21875 112.359375 237.257813 111.945313 Z M 252.789063 138.097656 L 252.34375 144.273438 L 231.847656 142.878906 L 232.289063 136.699219 Z M 258.15625 139.472656 L 257.851563 143.746094 L 253.65625 143.460938 L 253.960938 139.1875 Z M 258.15625 139.472656 "/>
<path style=" stroke:none;fill-rule:evenodd;fill:rgb(6.272888%,16.479492%,51.367188%);fill-opacity:1;" d="M 107.386719 229.125 L 94.890625 246.523438 L 88.394531 243.964844 L 96.582031 232.566406 C 95.109375 232.742188 93.746094 232.820313 92.496094 232.800781 C 91.257813 232.78125 89.773438 232.644531 88.046875 232.394531 L 90.851563 228.496094 C 93.414063 228.835938 95.558594 228.878906 97.289063 228.625 C 99.027344 228.367188 100.621094 227.835938 102.074219 227.035156 Z M 109.621094 246.007813 L 116.894531 246.367188 C 116.890625 247.132813 117.066406 247.695313 117.433594 248.058594 C 117.796875 248.429688 118.304688 248.660156 118.941406 248.75 C 120.085938 248.914063 121.097656 248.613281 121.960938 247.851563 C 122.59375 247.285156 123.296875 246 124.066406 243.992188 C 123.039063 244.519531 122.039063 244.867188 121.066406 245.042969 C 120.078125 245.214844 119.003906 245.214844 117.824219 245.046875 C 115.519531 244.714844 113.738281 243.832031 112.472656 242.390625 C 111.203125 240.957031 110.816406 239.308594 111.304688 237.457031 C 111.636719 236.195313 112.339844 235.101563 113.414063 234.183594 C 114.496094 233.257813 115.8125 232.632813 117.371094 232.304688 C 118.921875 231.976563 120.765625 231.96875 122.902344 232.273438 C 125.476563 232.644531 127.453125 233.269531 128.839844 234.144531 C 130.21875 235.019531 131.1875 236.238281 131.742188 237.792969 C 132.296875 239.347656 132.269531 241.296875 131.65625 243.632813 C 130.753906 247.0625 129.117188 249.4375 126.746094 250.757813 C 124.378906 252.070313 121.464844 252.476563 117.996094 251.980469 C 115.960938 251.6875 114.390625 251.28125 113.304688 250.761719 C 112.21875 250.238281 111.367188 249.585938 110.765625 248.796875 C 110.160156 248.011719 109.777344 247.082031 109.621094 246.007813 Z M 124.996094 239.414063 C 125.265625 238.386719 125.128906 237.53125 124.578125 236.84375 C 124.03125 236.160156 123.257813 235.746094 122.253906 235.601563 C 121.300781 235.464844 120.449219 235.617188 119.6875 236.054688 C 118.921875 236.492188 118.402344 237.238281 118.121094 238.292969 C 117.847656 239.355469 117.953125 240.214844 118.453125 240.871094 C 118.953125 241.527344 119.691406 241.921875 120.664063 242.0625 C 121.664063 242.207031 122.574219 242.058594 123.382813 241.605469 C 124.191406 241.15625 124.730469 240.429688 124.996094 239.414063 Z M 135.929688 243.738281 C 134.980469 240.125 135.195313 237.464844 136.574219 235.769531 C 137.953125 234.074219 140.445313 232.964844 144.039063 232.449219 C 145.769531 232.199219 147.234375 232.148438 148.421875 232.308594 C 149.617188 232.460938 150.628906 232.746094 151.460938 233.148438 C 152.296875 233.554688 152.992188 234.003906 153.539063 234.503906 C 154.09375 235.003906 154.585938 235.609375 155.027344 236.316406 C 155.878906 237.667969 156.507813 239.113281 156.910156 240.652344 C 157.816406 244.105469 157.691406 246.742188 156.53125 248.570313 C 155.378906 250.398438 152.871094 251.585938 149.011719 252.140625 C 146.851563 252.453125 145.039063 252.453125 143.570313 252.128906 C 142.101563 251.8125 140.816406 251.21875 139.703125 250.359375 C 138.902344 249.746094 138.164063 248.859375 137.507813 247.695313 C 136.839844 246.527344 136.3125 245.210938 135.929688 243.738281 Z M 143.015625 242.734375 C 143.652344 245.15625 144.371094 246.765625 145.183594 247.566406 C 145.992188 248.375 146.953125 248.695313 148.046875 248.539063 C 148.773438 248.433594 149.351563 248.15625 149.785156 247.703125 C 150.21875 247.25 150.449219 246.597656 150.488281 245.753906 C 150.527344 244.902344 150.320313 243.617188 149.867188 241.894531 C 149.203125 239.371094 148.46875 237.710938 147.664063 236.925781 C 146.859375 236.140625 145.878906 235.832031 144.71875 236 C 143.539063 236.167969 142.800781 236.734375 142.511719 237.695313 C 142.21875 238.65625 142.386719 240.335938 143.015625 242.734375 Z M 156.015625 230.992188 L 174.757813 223.617188 L 177.066406 226.824219 C 176.214844 228.554688 175.699219 230.269531 175.519531 231.96875 C 175.300781 234.03125 175.492188 236.15625 176.078125 238.347656 C 176.527344 240.0625 177.367188 241.957031 178.597656 244.050781 L 172.195313 246.570313 C 170.695313 243.578125 169.804688 240.925781 169.53125 238.605469 C 169.257813 236.289063 169.515625 233.59375 170.3125 230.515625 L 158.898438 235.007813 Z M 156.015625 230.992188 "/>
<path style=" stroke:none;fill-rule:evenodd;fill:rgb(61.914063%,85.9375%,95.701599%);fill-opacity:1;" d="M 202.140625 103.625 C 202.140625 103.625 203.394531 103.503906 203.632813 103.921875 C 203.871094 104.339844 204.410156 105.058594 205.367188 105.121094 C 206.324219 105.179688 208.175781 105.597656 209.191406 105.597656 C 210.203125 105.597656 212.65625 105.777344 213.253906 106.257813 C 213.851563 106.734375 215.164063 107.09375 213.671875 107.09375 C 212.179688 107.09375 210.445313 106.792969 209.90625 108.050781 C 209.371094 109.308594 208.234375 109.308594 208.890625 109.90625 C 209.550781 110.503906 210.386719 112.238281 209.550781 111.460938 C 208.714844 110.683594 207.816406 109.785156 206.980469 109.84375 C 206.144531 109.90625 204.769531 109.964844 204.410156 109.308594 C 204.054688 108.648438 203.277344 108.46875 204.648438 108.410156 C 206.023438 108.351563 206.679688 108.410156 207.398438 107.691406 C 208.117188 106.972656 208.714844 106.675781 207.453125 106.734375 C 206.203125 106.792969 203.871094 106.734375 203.214844 105.957031 C 202.558594 105.179688 202.140625 103.683594 202.140625 103.625 Z M 202.140625 103.625 "/>
</g>
</svg>
