<?xml version="1.0" encoding="UTF-8" standalone="no"?>
<!-- Created with Inkscape (http://www.inkscape.org/) -->

<svg
   xmlns:dc="http://purl.org/dc/elements/1.1/"
   xmlns:cc="http://creativecommons.org/ns#"
   xmlns:rdf="http://www.w3.org/1999/02/22-rdf-syntax-ns#"
   xmlns:svg="http://www.w3.org/2000/svg"
   xmlns="http://www.w3.org/2000/svg"
   xmlns:sodipodi="http://sodipodi.sourceforge.net/DTD/sodipodi-0.dtd"
   xmlns:inkscape="http://www.inkscape.org/namespaces/inkscape"
   width="1323"
   height="698"
   viewBox="0 0 1323 698"
   id="svg10762"
   version="1.1"
   inkscape:version="0.92.2 (5c3e80d, 2017-08-06)"
   sodipodi:docname="2Win.svg">
  <defs
     id="defs10764" />
  <sodipodi:namedview
     id="base"
     pagecolor="#ffffff"
     bordercolor="#666666"
     borderopacity="1.0"
     inkscape:pageopacity="0.0"
     inkscape:pageshadow="2"
     inkscape:zoom="0.35"
     inkscape:cx="-242.6"
     inkscape:cy="977.14"
     inkscape:document-units="px"
     inkscape:current-layer="layer1"
     showgrid="false"
     inkscape:window-width="1920"
     inkscape:window-height="1017"
     inkscape:window-x="-8"
     inkscape:window-y="-8"
     inkscape:window-maximized="1"
     units="px" />
  <metadata
     id="metadata10767">
    <rdf:RDF>
      <cc:Work
         rdf:about="">
        <dc:format>image/svg+xml</dc:format>
        <dc:type
           rdf:resource="http://purl.org/dc/dcmitype/StillImage" />
        <dc:title></dc:title>
      </cc:Work>
    </rdf:RDF>
  </metadata>
  <g
     inkscape:label="Layer 1"
     inkscape:groupmode="layer"
     id="layer1"
     transform="translate(0,-397.98)">
    <g
       style="overflow:hidden;stroke-width:0.93758"
       id="g31283"
       transform="matrix(1.0666,0,0,1.0666,-1.7563,396.08)">
      <g
         id="container"
         style="stroke-width:0.93758">
        <g
           id="container_1"
           style="stroke-width:0.93758">
          <path
             transform="translate(311.2,329.1)"
             id="shape"
             style="fill:#666666;stroke:none;stroke-width:0.93758"
             d="m -148.2,318.5 q -4.7,-15.6 -19.6,-46.1 -24.2,-45.8 -26.3,-52.5 -2.6,-10.9 35.7,-26.4 44,-18.9 54.8,-33.1 37.1,-52.7 70.9,-128.2 42.9,-95 32.4,-134.2 -8.8,-33.8 -39.2,-49.3 -30.3,-16.9 -64.1,-8.2 -37.8,10.2 -70.9,35.9 -22.9,15.6 -45.9,41.2 -20.2,21.5 -22.3,21.5 -16.2,4.7 -26.3,-33.1 -7.4,-28.9 -13.5,-42.4 -2.1,-5.4 -13.5,-23.6 -10.1,-14.9 -12.9,-23.1 -1.2,-6 5.4,-14 32.4,-39.2 92.6,-72.3 56,-30.5 111.3,-45.2 90.5,-24.3 161.2,-0.7 84.4,27.7 107.3,113.4 30.3,114.7 -101.3,313.8 120.8,-39.2 191,-58.2 14.8,-4 19.6,13.5 2.8,10.9 5.4,34.5 3.3,21.6 6.8,33.1 l 8.8,36.4 q 6.6,24.4 9.4,36.4 3.4,11.6 -12.2,15.6 -6,1.4 -46.6,3.4 -46.5,2 -164,33.7 -37.1,9.5 -109.1,32.4 -71.5,23.7 -107.3,33.8 -2.4,0.6 -4.6,0.6 -8.7,0 -13,-8.6 z"
             inkscape:connector-curvature="0" />
          <path
             transform="translate(832.8,334.4)"
             id="shape_1"
             style="fill:#6f89eb;stroke:none;stroke-width:0.93758"
             d="M 350.8,167 V 9.7 q 0.2,-19 -5.3,-26.3 -5.6,-7.1 -19.3,-6.7 -17.2,0.1 -35,7.4 -17.8,7.5 -42,21 L 249.6,167 H 191.7 V -65.7 h 48.5 l 3.7,34.8 q 25,-19.5 50,-30.2 25.1,-10.9 50.7,-11.1 31.3,0.2 47.7,16.7 16.2,16.5 16.5,48 V 167 Z M 67.7,167 V -65.7 h 57.5 V 167 Z m -188.1,0 q -8.4,-0.1 -14.3,-4.7 -5.8,-4.4 -7.5,-12.5 l -41.3,-228.2 q -1.8,-9.8 -3.4,-19.3 l -2.8,-19.2 h -9.6 q -1.4,9.7 -2.9,19.4 -1.5,9.7 -3.3,19.1 l -40.8,228.2 q -1.7,8.1 -7.7,12.5 -6.3,4.6 -14.6,4.7 h -61.7 q -8.4,-0.3 -14.3,-4.7 -5.9,-4.4 -7.5,-12.1 l -56.6,-310.8 h 61.7 l 39,238.7 q 1.8,10.4 3,21.4 l 2.3,23.4 h 10 q 1.6,-11.9 3.4,-23 1.9,-11.1 4,-21.8 l 40.3,-219.6 q 1.7,-8.9 7.2,-13.8 5.9,-5 14.9,-5.3 h 57.7 q 8.4,0.3 14.2,5.3 5.8,4.9 7.4,13.8 l 40.4,220.1 q 2,11.1 3.7,22.5 1.8,11.1 2.7,21.8 h 10.5 l 2.8,-22.1 q 1.2,-11.1 2.6,-21.7 l 39.3,-239.7 H 20 l -56.5,310.8 q -1.8,7.7 -7.6,12.1 -5.8,4.4 -14.1,4.7 z M 83,-107.5 q -8.3,0 -12.5,-4.1 -4.1,-4.2 -4.1,-12.5 v -26 q 0,-7.9 4.1,-12.4 4.2,-4.4 12.5,-4.4 h 26.5 q 8.5,0 12.8,4.4 3.9,4.5 3.9,12.4 v 26 q 0,8.3 -3.9,12.5 -4.3,4.1 -12.8,4.1 z"
             inkscape:connector-curvature="0" />
        </g>
      </g>
    </g>
  </g>
</svg>
