<?xml version="1.0" encoding="UTF-8"?>
<svg version="1.1" viewBox="0 0 156 40" width="156" height="40" xmlns="http://www.w3.org/2000/svg">
 <g transform="matrix(.455 0 0 .455 -35 -340)" stroke-width=".822">
  <g fill="#757474">
   <g transform="matrix(3.57 0 0 -3.57 246 834)">
    <path d="m0 0c-0.164 0-0.246 0.082-0.246 0.246v3.54c0 0.164 0.082 0.246 0.246 0.246h0.15c0.164 0 0.246-0.082 0.246-0.246v-3.54c0-0.164-0.082-0.246-0.246-0.246z" fill="#757474"/>
   </g>
   <g transform="matrix(3.57 0 0 -3.57 260 834)">
    <path d="m0 0c-0.164 0-0.246 0.082-0.246 0.246v3.54c0 0.164 0.082 0.246 0.246 0.246h0.33c0.065 0 0.122-0.012 0.169-0.035s0.089-0.061 0.126-0.113c0.044-0.064 0.089-0.129 0.133-0.195 0.044-0.067 0.097-0.151 0.158-0.252s0.135-0.229 0.224-0.382 0.201-0.35 0.336-0.589l0.257-0.46c0.141-0.255 0.265-0.474 0.373-0.657s0.205-0.325 0.29-0.425h0.037l-0.011 2.86c0 0.164 0.082 0.246 0.246 0.246h0.15c0.164 0 0.246-0.082 0.246-0.246v-3.54c0-0.164-0.082-0.246-0.246-0.246h-0.309c-0.066 0-0.122 0.012-0.17 0.035-0.047 0.023-0.09 0.06-0.128 0.113-0.078 0.106-0.16 0.228-0.248 0.366-0.088 0.137-0.181 0.293-0.279 0.467l-0.24 0.419c-0.12 0.222-0.227 0.419-0.323 0.589-0.095 0.171-0.184 0.323-0.265 0.456s-0.156 0.251-0.227 0.353c-0.07 0.102-0.139 0.197-0.207 0.284h-0.037l9e-3 -2.84c0-0.164-0.082-0.246-0.246-0.246z" fill="#757474"/>
   </g>
   <g transform="matrix(3.57 0 0 -3.57 284 823)">
    <path d="m0 0c-0.106-0.141-0.185-0.307-0.237-0.5s-0.078-0.405-0.078-0.636c0-0.202 0.027-0.394 0.081-0.574s0.134-0.337 0.24-0.471 0.237-0.24 0.395-0.318c0.157-0.078 0.339-0.117 0.545-0.117 0.193 0 0.366 0.035 0.518 0.107 0.152 0.071 0.282 0.173 0.388 0.305s0.187 0.292 0.243 0.481 0.084 0.401 0.084 0.636c0 0.224-0.027 0.429-0.081 0.617s-0.133 0.35-0.237 0.487c-0.105 0.137-0.233 0.244-0.387 0.32-0.153 0.076-0.329 0.114-0.528 0.114-0.21 0-0.393-0.039-0.548-0.117s-0.288-0.189-0.398-0.334m2.27-2.65c-0.164-0.168-0.356-0.292-0.578-0.374s-0.465-0.123-0.729-0.123c-0.284 0-0.542 0.044-0.776 0.133-0.233 0.088-0.434 0.219-0.602 0.392-0.167 0.172-0.297 0.386-0.389 0.641-0.091 0.254-0.137 0.548-0.137 0.882 0 0.338 0.045 0.636 0.136 0.896 0.09 0.259 0.219 0.477 0.386 0.654 0.167 0.176 0.367 0.31 0.6 0.402 0.234 0.091 0.493 0.137 0.779 0.137 0.274 0 0.524-0.046 0.751-0.139 0.226-0.092 0.421-0.227 0.584-0.403 0.163-0.177 0.289-0.393 0.379-0.65 0.09-0.256 0.135-0.55 0.135-0.879 0-0.352-0.047-0.657-0.141-0.918-0.093-0.26-0.226-0.477-0.398-0.651" fill="#757474"/>
   </g>
   <g transform="matrix(3.57 0 0 -3.57 308 834)">
    <path d="m0 0c-0.071 0-0.13 0.014-0.175 0.042s-0.084 0.073-0.114 0.135c-0.06 0.115-0.125 0.255-0.194 0.419-0.07 0.164-0.142 0.343-0.217 0.538s-0.152 0.402-0.229 0.621-0.152 0.442-0.225 0.67c-0.074 0.227-0.144 0.455-0.21 0.683-0.067 0.227-0.127 0.448-0.181 0.662-0.021 0.074-0.012 0.137 0.027 0.19 0.04 0.053 0.1 0.081 0.181 0.085l0.174 9e-3c0.075 0 0.135-0.017 0.179-0.049 0.045-0.033 0.076-0.086 0.096-0.16 0.031-0.125 0.069-0.27 0.114-0.435s0.096-0.341 0.153-0.527 0.118-0.379 0.183-0.578c0.064-0.2 0.131-0.398 0.201-0.595 0.069-0.197 0.14-0.388 0.212-0.573 0.073-0.185 0.146-0.357 0.219-0.515h0.11c0.04 0.085 0.088 0.193 0.143 0.323s0.113 0.278 0.174 0.442c0.06 0.165 0.124 0.344 0.191 0.537 0.066 0.193 0.133 0.395 0.199 0.605 0.067 0.21 0.131 0.426 0.194 0.648s0.122 0.445 0.178 0.668c0.019 0.074 0.052 0.127 0.098 0.16 0.047 0.032 0.107 0.049 0.18 0.049l0.171-9e-3c0.081-4e-3 0.141-0.03 0.18-0.079 0.04-0.05 0.05-0.115 0.031-0.196-0.052-0.198-0.11-0.406-0.172-0.622-0.063-0.216-0.13-0.434-0.2-0.655s-0.143-0.44-0.217-0.657-0.149-0.425-0.224-0.625c-0.076-0.2-0.15-0.388-0.225-0.564-0.074-0.177-0.146-0.334-0.215-0.47-0.033-0.062-0.072-0.107-0.117-0.135-0.046-0.028-0.103-0.042-0.172-0.042z" fill="#757474"/>
   </g>
   <g transform="matrix(3.57 0 0 -3.57 329 822)">
    <path d="m0 0c-0.096-0.208-0.202-0.475-0.317-0.8s-0.24-0.707-0.375-1.14h1.48c-0.116 0.382-0.231 0.734-0.346 1.06s-0.23 0.618-0.346 0.888zm1.82-3.24c0.021-0.073 0.012-0.136-0.027-0.189-0.04-0.054-0.1-0.082-0.181-0.086l-0.165-8e-3c-0.147-8e-3 -0.239 0.06-0.278 0.205-0.05 0.193-0.093 0.357-0.129 0.493s-0.069 0.254-0.1 0.355h-1.78c-0.056-0.203-0.103-0.375-0.14-0.515-0.038-0.141-0.067-0.252-0.088-0.333-0.039-0.145-0.132-0.213-0.278-0.205l-0.162 8e-3c-0.037 2e-3 -0.071 0.01-0.102 0.023-0.03 0.014-0.056 0.033-0.076 0.058-0.021 0.025-0.034 0.054-0.041 0.087s-3e-3 0.068 0.01 0.107c0.014 0.048 0.034 0.122 0.061 0.221 0.027 0.1 0.06 0.216 0.1 0.351 0.039 0.134 0.084 0.283 0.135 0.447 0.05 0.164 0.104 0.335 0.162 0.513 0.057 0.179 0.118 0.361 0.182 0.547 0.063 0.186 0.128 0.369 0.194 0.548 0.065 0.18 0.132 0.352 0.201 0.517 0.068 0.165 0.135 0.316 0.201 0.453 0.056 0.115 0.151 0.173 0.286 0.173h0.492c0.137 0 0.234-0.058 0.29-0.173 0.071-0.151 0.148-0.328 0.23-0.533 0.082-0.204 0.164-0.421 0.247-0.649 0.083-0.229 0.164-0.462 0.243-0.699s0.153-0.464 0.221-0.682c0.069-0.217 0.129-0.415 0.18-0.594 0.051-0.18 0.09-0.326 0.117-0.44" fill="#757474"/>
   </g>
   <g transform="matrix(3.57 0 0 -3.57 349 834)">
    <path d="m0 0c-0.098 0-0.193 4e-3 -0.284 0.013-0.09 9e-3 -0.179 0.023-0.266 0.042-0.087 0.02-0.173 0.043-0.26 0.072-0.087 0.028-0.178 0.062-0.272 0.103-0.041 0.017-0.078 0.036-0.113 0.057-0.035 0.02-0.063 0.043-0.085 0.068-0.023 0.025-0.036 0.054-0.041 0.086s2e-3 0.069 0.019 0.112l0.038 0.089c0.027 0.066 0.068 0.107 0.124 0.123 0.056 0.017 0.12 8e-3 0.194-0.024 0.09-0.039 0.173-0.071 0.247-0.097s0.147-0.048 0.217-0.064c0.071-0.016 0.142-0.028 0.213-0.035 0.071-6e-3 0.149-0.01 0.234-0.01 0.118 0 0.223 0.015 0.314 0.044 0.092 0.029 0.17 0.07 0.233 0.125 0.064 0.055 0.113 0.121 0.146 0.197 0.034 0.076 0.051 0.162 0.051 0.259 0 0.086-0.013 0.164-0.039 0.231-0.026 0.068-0.069 0.129-0.127 0.184-0.059 0.055-0.137 0.105-0.233 0.15-0.097 0.045-0.216 0.088-0.356 0.129-0.212 0.061-0.396 0.123-0.551 0.186-0.156 0.063-0.285 0.136-0.387 0.221s-0.178 0.187-0.228 0.307c-0.051 0.119-0.076 0.266-0.076 0.439 0 0.179 0.031 0.339 0.093 0.48s0.151 0.259 0.268 0.356c0.116 0.096 0.259 0.169 0.426 0.219 0.168 0.051 0.358 0.076 0.57 0.076 0.053 0 0.113-3e-3 0.181-9e-3 0.069-6e-3 0.142-0.015 0.219-0.027 0.077-0.013 0.157-0.03 0.24-0.053 0.083-0.022 0.165-0.05 0.246-0.085 0.04-0.017 0.078-0.036 0.113-0.056 0.034-0.021 0.063-0.045 0.085-0.073s0.035-0.059 0.039-0.092c4e-3 -0.034-5e-3 -0.072-0.026-0.115l-0.04-0.081c-0.033-0.067-0.076-0.103-0.128-0.108s-0.113 6e-3 -0.182 0.033c-0.106 0.043-0.218 0.075-0.336 0.097-0.117 0.022-0.24 0.033-0.367 0.033-0.237 0-0.424-0.048-0.559-0.144-0.135-0.097-0.202-0.23-0.202-0.4 0-0.1 0.015-0.182 0.045-0.247s0.079-0.122 0.149-0.172c0.033-0.025 0.068-0.048 0.107-0.068 0.038-0.02 0.084-0.041 0.136-0.061s0.113-0.042 0.184-0.065c0.07-0.023 0.153-0.05 0.25-0.081 0.198-0.06 0.369-0.126 0.511-0.198 0.141-0.073 0.257-0.155 0.348-0.248 0.091-0.092 0.158-0.197 0.201-0.314 0.044-0.116 0.065-0.247 0.065-0.392 0-0.189-0.028-0.358-0.085-0.507-0.057-0.15-0.142-0.277-0.255-0.381-0.112-0.104-0.253-0.184-0.422-0.24s-0.364-0.084-0.586-0.084" fill="#757474"/>
   </g>
   <g transform="matrix(3.57 0 0 -3.57 366 826)">
    <path d="m0 0c-0.117 0.176-0.227 0.349-0.331 0.521-0.104 0.171-0.203 0.344-0.297 0.518-0.093 0.173-0.186 0.355-0.276 0.544-0.021 0.042-0.036 0.083-0.044 0.121-7e-3 0.039-6e-3 0.073 3e-3 0.103 0.01 0.03 0.031 0.054 0.062 0.072 0.032 0.019 0.078 0.03 0.138 0.034l0.205 8e-3c0.074 0 0.132-0.014 0.177-0.042 0.044-0.028 0.082-0.074 0.113-0.14 0.067-0.147 0.127-0.276 0.181-0.389 0.053-0.113 0.102-0.215 0.147-0.305 0.045-0.091 0.089-0.175 0.132-0.252 0.042-0.077 0.087-0.154 0.134-0.23 0.048-0.076 0.099-0.156 0.154-0.239s0.118-0.176 0.189-0.281h0.032c0.06 0.078 0.126 0.174 0.198 0.29 0.073 0.115 0.149 0.247 0.229 0.393 0.08 0.147 0.162 0.306 0.247 0.476 0.085 0.171 0.17 0.351 0.255 0.54 0.029 0.065 0.066 0.112 0.113 0.139 0.046 0.027 0.106 0.04 0.179 0.04l0.208-8e-3c0.091-4e-3 0.153-0.032 0.187-0.084s0.031-0.122-7e-3 -0.209c-0.074-0.154-0.15-0.307-0.229-0.46-0.079-0.152-0.166-0.311-0.262-0.477-0.095-0.166-0.203-0.341-0.322-0.525-0.12-0.185-0.258-0.385-0.414-0.601l-0.081-0.113v-1.33c0-0.164-0.082-0.246-0.246-0.246h-0.148c-0.164 0-0.246 0.082-0.246 0.246v1.33c-0.137 0.195-0.263 0.38-0.38 0.556" fill="#757474"/>
   </g>
   <g transform="matrix(3.57 0 0 -3.57 386 823)">
    <path d="m0 0c-0.106-0.141-0.185-0.307-0.237-0.5s-0.078-0.405-0.078-0.636c0-0.202 0.027-0.394 0.081-0.574s0.134-0.337 0.24-0.471 0.237-0.24 0.395-0.318c0.157-0.078 0.339-0.117 0.545-0.117 0.193 0 0.366 0.035 0.518 0.107 0.152 0.071 0.282 0.173 0.388 0.305s0.187 0.292 0.243 0.481 0.084 0.401 0.084 0.636c0 0.224-0.027 0.429-0.081 0.617s-0.133 0.35-0.237 0.487c-0.105 0.137-0.233 0.244-0.387 0.32-0.153 0.076-0.329 0.114-0.528 0.114-0.21 0-0.393-0.039-0.548-0.117s-0.288-0.189-0.398-0.334m2.27-2.65c-0.163-0.168-0.356-0.292-0.578-0.374s-0.465-0.123-0.729-0.123c-0.284 0-0.542 0.044-0.776 0.133-0.233 0.088-0.434 0.219-0.602 0.392-0.167 0.172-0.297 0.386-0.389 0.641-0.091 0.254-0.137 0.548-0.137 0.882 0 0.338 0.045 0.636 0.136 0.896 0.09 0.259 0.219 0.477 0.386 0.654 0.167 0.176 0.367 0.31 0.6 0.402 0.234 0.091 0.493 0.137 0.779 0.137 0.274 0 0.524-0.046 0.751-0.139 0.226-0.092 0.421-0.227 0.584-0.403 0.163-0.177 0.289-0.393 0.379-0.65 0.09-0.256 0.135-0.55 0.135-0.879 0-0.352-0.047-0.657-0.141-0.918-0.093-0.26-0.226-0.477-0.398-0.651" fill="#757474"/>
   </g>
   <g transform="matrix(3.57 0 0 -3.57 407 834)">
    <path d="m0 0c-0.164 0-0.246 0.082-0.246 0.246v3.54c0 0.164 0.082 0.246 0.246 0.246h0.33c0.065 0 0.122-0.012 0.169-0.035s0.089-0.061 0.126-0.113c0.044-0.064 0.089-0.129 0.133-0.195 0.044-0.067 0.097-0.151 0.158-0.252s0.135-0.229 0.224-0.382 0.201-0.35 0.336-0.589l0.257-0.46c0.141-0.255 0.265-0.474 0.373-0.657s0.205-0.325 0.29-0.425h0.037l-0.011 2.86c0 0.164 0.082 0.246 0.246 0.246h0.15c0.164 0 0.246-0.082 0.246-0.246v-3.54c0-0.164-0.082-0.246-0.246-0.246h-0.309c-0.066 0-0.122 0.012-0.17 0.035-0.047 0.023-0.09 0.06-0.128 0.113-0.078 0.106-0.16 0.228-0.248 0.366-0.088 0.137-0.181 0.293-0.279 0.467l-0.24 0.419c-0.12 0.222-0.227 0.419-0.323 0.589-0.095 0.171-0.184 0.323-0.265 0.456s-0.156 0.251-0.227 0.353c-0.07 0.102-0.139 0.197-0.207 0.284h-0.037l9e-3 -2.84c0-0.164-0.082-0.246-0.246-0.246z" fill="#757474"/>
   </g>
  </g>
  <g transform="matrix(3.57 0 0 -3.57 114 759)" fill="#0aa4b4">
   <path d="m0 0c0.127-2e-3 0.222-0.119 0.198-0.244-0.293-1.54-1.05-2.91-2.26-3.9-1.21-0.984-2.71-1.44-4.28-1.41-0.128 2e-3 -0.222 0.119-0.199 0.244 0.293 1.54 1.05 2.91 2.26 3.9 1.21 0.984 2.71 1.44 4.28 1.41" fill="#0aa4b4"/>
  </g>
  <g fill="#757474">
   <g transform="matrix(3.57 0 0 -3.57 98.1 793)">
    <path d="m0 0h-0.953c-0.837 0-1.52 0.678-1.52 1.52v6.38c0 0.793-0.643 1.44-1.44 1.44-0.792 0-1.44-0.642-1.44-1.44v-6.41c0-2.41 1.95-4.36 4.36-4.36h0.979c0.793 0 1.44 0.643 1.44 1.44 0 0.792-0.642 1.44-1.44 1.44" fill="#757474"/>
   </g>
   <g transform="matrix(3.57 0 0 -3.57 191 759)">
    <path d="m0 0h-2.34c-2.41 0-4.36-1.95-4.36-4.36v-6.41c0-0.793 0.643-1.44 1.44-1.44 0.792 0 1.44 0.642 1.44 1.44v6.38c0 0.837 0.678 1.52 1.52 1.52h2.31c0.793 0 1.44 0.643 1.44 1.44 0 0.792-0.642 1.44-1.44 1.44" fill="#757474"/>
   </g>
   <g transform="matrix(3.57 0 0 -3.57 413 793)">
    <path d="m0 0h-4.77l5.81 6.91c0.745 0.902 0.153 2.42-1.04 2.42h-7.76c-0.798 0-1.44-0.65-1.44-1.45 7e-3 -0.788 0.648-1.42 1.44-1.42h4.68l-5.78-6.87c-0.193-0.236-0.298-0.515-0.319-0.798-0.013-0.078-0.02-0.159-0.019-0.241 7e-3 -0.788 0.648-1.42 1.44-1.42h7.76c0.793 0 1.37 0.643 1.37 1.44 0 0.792-0.575 1.44-1.37 1.44" fill="#757474"/>
   </g>
   <g transform="matrix(3.57 0 0 -3.57 236 794)">
    <path d="m0 0-4.32 3.1 4.2 3.7c0.601 0.517 0.67 1.42 0.153 2.02s-1.42 0.669-2.02 0.153l-4.55-4v6.54c0 0.792-0.643 1.44-1.44 1.44-0.793 0-1.44-0.643-1.44-1.44v-12.7c0-0.798 0.651-1.44 1.45-1.44 0.788 7e-3 1.42 0.648 1.42 1.44v2.32l4.88-3.49c0.648-0.465 1.55-0.311 2.01 0.342 0.453 0.644 0.302 1.53-0.339 1.99" fill="#757474"/>
   </g>
   <g transform="matrix(3.57 0 0 -3.57 330 760)">
    <path d="m0 0c-0.708 0.358-1.57 0.074-1.93-0.634l-3.56-7.04-3.56 7.04c-0.357 0.708-1.22 0.992-1.93 0.634-0.708-0.358-0.992-1.22-0.634-1.93l4.72-9.34c0.272-0.538 0.837-0.831 1.4-0.783 0.567-0.048 1.13 0.245 1.4 0.783l4.72 9.34c0.357 0.708 0.074 1.57-0.634 1.93" fill="#757474"/>
   </g>
   <g transform="matrix(3.57 0 0 -3.57 154 759)">
    <path d="m0 0c-0.793 0-1.44-0.643-1.44-1.44v-6.38c0-0.836-0.679-1.51-1.52-1.51h-2.31c-0.837 0-1.52 0.678-1.52 1.51v6.38c0 0.792-0.643 1.44-1.44 1.44-0.792 0-1.44-0.643-1.44-1.44v-6.41c0-2.41 1.95-4.36 4.36-4.36h2.36c2.41 0 4.36 1.95 4.36 4.36v6.41c0 0.792-0.642 1.44-1.44 1.44" fill="#757474"/>
   </g>
   <g transform="matrix(3.57 0 0 -3.57 278 759)">
    <path d="m0 0c-0.793 0-1.44-0.643-1.44-1.44v-6.38c0-0.836-0.679-1.51-1.52-1.51h-2.31c-0.837 0-1.52 0.678-1.52 1.51v6.38c0 0.792-0.643 1.44-1.44 1.44-0.792 0-1.44-0.643-1.44-1.44v-6.41c0-2.41 1.95-4.36 4.36-4.36h2.36c2.41 0 4.36 1.95 4.36 4.36v6.41c0 0.792-0.642 1.44-1.44 1.44" fill="#757474"/>
   </g>
   <g transform="matrix(3.57 0 0 -3.57 364 793)">
    <path d="m0 0h-4.59c-0.525 0-0.951 0.426-0.951 0.951s0.426 0.951 0.951 0.951h4.59zm-1.75 9.41h-3.62c-0.771 0-1.4-0.625-1.4-1.4 0-0.771 0.626-1.4 1.4-1.4h3.56c0.998 0 1.81-0.81 1.81-1.81v-0.11h-4.66c-2.03 0-3.68-1.65-3.68-3.68v-0.064c0-2.07 1.68-3.74 3.74-3.74h5.05c1.29 0 2.34 1.05 2.34 2.34v5.32c0 2.51-2.04 4.55-4.55 4.55" fill="#757474"/>
   </g>
  </g>
 </g>
</svg>
