<?xml version="1.0" encoding="UTF-8" standalone="no"?>
<!-- Created with Inkscape (http://www.inkscape.org/) -->

<svg
   width="375"
   height="60"
   viewBox="0 0 375.00002 60.000001"
   version="1.1"
   id="svg1"
   inkscape:version="1.3.2 (091e20e, 2023-11-25, custom)"
   sodipodi:docname="turkuvaz_atolye.svg"
   inkscape:export-filename="turkuvaz_atolye.375x60.png"
   inkscape:export-xdpi="96"
   inkscape:export-ydpi="96"
   xmlns:inkscape="http://www.inkscape.org/namespaces/inkscape"
   xmlns:sodipodi="http://sodipodi.sourceforge.net/DTD/sodipodi-0.dtd"
   xmlns="http://www.w3.org/2000/svg"
   xmlns:svg="http://www.w3.org/2000/svg">
  <sodipodi:namedview
     id="namedview1"
     pagecolor="#ffffff"
     bordercolor="#666666"
     borderopacity="1.0"
     inkscape:showpageshadow="2"
     inkscape:pageopacity="0.0"
     inkscape:pagecheckerboard="0"
     inkscape:deskcolor="#d1d1d1"
     inkscape:document-units="px"
     inkscape:zoom="2.811532"
     inkscape:cx="188.50933"
     inkscape:cy="66.333942"
     inkscape:window-width="1920"
     inkscape:window-height="1009"
     inkscape:window-x="2872"
     inkscape:window-y="-8"
     inkscape:window-maximized="1"
     inkscape:current-layer="layer1" />
  <defs
     id="defs1" />
  <g
     inkscape:label="Katman 1"
     inkscape:groupmode="layer"
     id="layer1">
    <g
       id="g1"
       transform="matrix(1.2554528,0,0,1.2554528,-17.627265,-30.81486)"
       style="stroke-width:0.796525">
      <g
         id="g2527-6-1"
         transform="matrix(0.47919146,0,0,0.47919146,-23.056924,-325.7214)"
         style="stroke-width:0.439799">
        <g
           id="g1271-7-1"
           transform="matrix(3.565696,0,0,-3.565696,114.22827,759.32998)"
           style="fill:#0aa4b4;fill-opacity:1;stroke-width:0.164455">
          <path
             d="m 0,0 c 0.127,-0.002 0.222,-0.119 0.198,-0.244 -0.293,-1.538 -1.046,-2.91 -2.26,-3.895 -1.214,-0.984 -2.712,-1.439 -4.276,-1.409 -0.128,0.002 -0.222,0.119 -0.199,0.244 0.293,1.538 1.047,2.91 2.261,3.895 C -3.063,-0.425 -1.565,0.03 0,0"
             style="fill:#0aa4b4;fill-opacity:1;fill-rule:nonzero;stroke:none;stroke-width:0.164455"
             id="path1273-4-0" />
        </g>
        <g
           id="g1275-3-49"
           transform="matrix(3.565696,0,0,-3.565696,98.116316,792.59436)"
           style="fill:#757474;fill-opacity:1;stroke-width:0.164455">
          <path
             d="M 0,0 H -0.953 C -1.79,0 -2.468,0.678 -2.468,1.515 v 6.38 c 0,0.793 -0.643,1.435 -1.436,1.435 -0.792,0 -1.435,-0.642 -1.435,-1.435 V 1.489 c 0,-2.408 1.952,-4.36 4.36,-4.36 H 0 c 0.793,0 1.435,0.643 1.435,1.436 C 1.435,-0.643 0.793,0 0,0"
             style="fill:#757474;fill-opacity:1;fill-rule:nonzero;stroke:none;stroke-width:0.164455"
             id="path1277-5-3" />
        </g>
        <g
           id="g1279-7-7"
           transform="matrix(3.565696,0,0,-3.565696,191.17456,759.32499)"
           style="fill:#757474;fill-opacity:1;stroke-width:0.164455">
          <path
             d="m 0,0 h -2.339 c -2.408,0 -4.36,-1.952 -4.36,-4.36 v -6.406 c 0,-0.793 0.643,-1.435 1.436,-1.435 0.792,0 1.435,0.642 1.435,1.435 v 6.38 c 0,0.837 0.678,1.515 1.515,1.515 H 0 c 0.793,0 1.435,0.643 1.435,1.436 C 1.435,-0.643 0.793,0 0,0"
             style="fill:#757474;fill-opacity:1;fill-rule:nonzero;stroke:none;stroke-width:0.164455"
             id="path1281-2-1" />
        </g>
        <g
           id="g1283-7-0"
           transform="matrix(3.565696,0,0,-3.565696,412.74834,792.59436)"
           style="fill:#757474;fill-opacity:1;stroke-width:0.164455">
          <path
             d="M 0,0 H -4.768 L 1.044,6.91 C 1.789,7.812 1.197,9.33 0,9.33 h -7.765 c -0.798,0 -1.443,-0.65 -1.436,-1.448 v 0 C -9.194,7.094 -8.553,6.46 -7.765,6.46 h 4.679 l -5.777,-6.869 c -0.193,-0.236 -0.298,-0.515 -0.319,-0.798 -0.013,-0.078 -0.02,-0.159 -0.019,-0.241 0.007,-0.788 0.648,-1.423 1.436,-1.423 H 0 c 0.793,0 1.368,0.643 1.368,1.436 C 1.368,-0.643 0.793,0 0,0"
             style="fill:#757474;fill-opacity:1;fill-rule:nonzero;stroke:none;stroke-width:0.164455"
             id="path1285-3-37" />
        </g>
        <g
           id="g1287-1-3"
           transform="matrix(3.565696,0,0,-3.565696,235.69228,793.55139)"
           style="fill:#757474;fill-opacity:1;stroke-width:0.164455">
          <path
             d="M 0,0 -4.323,3.095 -0.126,6.79 C 0.475,7.307 0.544,8.213 0.027,8.814 -0.49,9.415 -1.396,9.483 -1.998,8.967 L -6.547,4.962 v 6.545 c 0,0.792 -0.643,1.435 -1.435,1.435 -0.793,0 -1.436,-0.643 -1.436,-1.435 V -1.167 c 0,-0.798 0.651,-1.443 1.448,-1.436 0.788,0.007 1.423,0.648 1.423,1.436 v 2.324 l 4.876,-3.491 c 0.648,-0.465 1.551,-0.311 2.01,0.342 C 0.792,-1.348 0.641,-0.459 0,0"
             style="fill:#757474;fill-opacity:1;fill-rule:nonzero;stroke:none;stroke-width:0.164455"
             id="path1289-0-2" />
        </g>
        <g
           id="g1291-6-3"
           transform="matrix(3.565696,0,0,-3.565696,330.31729,759.84594)"
           style="fill:#757474;fill-opacity:1;stroke-width:0.164455">
          <path
             d="m 0,0 v 0 c -0.708,0.358 -1.571,0.074 -1.929,-0.634 l -3.559,-7.044 -3.559,7.044 c -0.357,0.708 -1.221,0.992 -1.928,0.634 -0.708,-0.358 -0.992,-1.221 -0.634,-1.929 l 4.718,-9.338 c 0.272,-0.538 0.837,-0.831 1.403,-0.783 0.567,-0.048 1.132,0.245 1.404,0.783 l 4.718,9.338 C 0.991,-1.221 0.708,-0.358 0,0"
             style="fill:#757474;fill-opacity:1;fill-rule:nonzero;stroke:none;stroke-width:0.164455"
             id="path1293-6-7" />
        </g>
        <g
           id="g1295-5-3"
           transform="matrix(3.565696,0,0,-3.565696,153.9979,759.32499)"
           style="fill:#757474;fill-opacity:1;stroke-width:0.164455">
          <path
             d="m 0,0 v 0 c -0.793,0 -1.435,-0.643 -1.435,-1.435 v -6.381 c 0,-0.836 -0.679,-1.514 -1.515,-1.514 h -2.313 c -0.837,0 -1.515,0.678 -1.515,1.514 v 6.381 C -6.778,-0.643 -7.421,0 -8.214,0 -9.006,0 -9.649,-0.643 -9.649,-1.435 v -6.406 c 0,-2.408 1.952,-4.36 4.36,-4.36 h 0.026 2.313 0.025 c 2.408,0 4.36,1.952 4.36,4.36 v 6.406 C 1.435,-0.643 0.793,0 0,0"
             style="fill:#757474;fill-opacity:1;fill-rule:nonzero;stroke:none;stroke-width:0.164455"
             id="path1297-7-0" />
        </g>
        <g
           id="g1299-9-1"
           transform="matrix(3.565696,0,0,-3.565696,278.17969,759.32499)"
           style="fill:#757474;fill-opacity:1;stroke-width:0.164455">
          <path
             d="m 0,0 v 0 c -0.793,0 -1.435,-0.643 -1.435,-1.435 v -6.381 c 0,-0.836 -0.679,-1.514 -1.515,-1.514 h -2.313 c -0.837,0 -1.515,0.678 -1.515,1.514 v 6.381 C -6.778,-0.643 -7.421,0 -8.214,0 -9.006,0 -9.649,-0.643 -9.649,-1.435 v -6.406 c 0,-2.408 1.952,-4.36 4.36,-4.36 h 0.026 2.313 0.025 c 2.408,0 4.36,1.952 4.36,4.36 v 6.406 C 1.435,-0.643 0.793,0 0,0"
             style="fill:#757474;fill-opacity:1;fill-rule:nonzero;stroke:none;stroke-width:0.164455"
             id="path1301-1-7" />
        </g>
        <g
           id="g1303-6-9"
           transform="matrix(3.565696,0,0,-3.565696,364.43138,792.86892)"
           style="fill:#757474;fill-opacity:1;stroke-width:0.164455">
          <path
             d="m 0,0 h -4.594 c -0.525,0 -0.951,0.426 -0.951,0.951 0,0.525 0.426,0.951 0.951,0.951 H 0 Z m -1.754,9.407 h -3.615 c -0.771,0 -1.397,-0.625 -1.397,-1.397 0,-0.771 0.626,-1.396 1.397,-1.396 h 3.562 C -0.809,6.614 0,5.804 0,4.806 v -0.11 h -4.657 c -2.033,0 -3.682,-1.648 -3.682,-3.682 V 0.95 c 0,-2.068 1.676,-3.744 3.744,-3.744 h 5.051 c 1.291,0 2.338,1.047 2.338,2.338 V 4.86 c 0,2.511 -2.036,4.547 -4.548,4.547"
             style="fill:#757474;fill-opacity:1;fill-rule:nonzero;stroke:none;stroke-width:0.164455"
             id="path1305-5-9" />
        </g>
      </g>
      <path
         class="st1"
         d="M 310.98544,38.095369 H 186.31378 v -11.7475 c 0,-0.52917 -0.39688,-0.97896 -0.89958,-1.00542 -0.55563,-0.0264 -1.00542,0.42334 -1.00542,0.9525 v 44.23834 c 0,0.52916 0.39687,0.97895 0.89958,1.00541 0.55563,0.0265 1.00542,-0.42333 1.00542,-0.9525 V 58.759329 H 311.0119 c 0.55563,0 1.00542,-0.44979 1.00542,-1.00542 v -18.65312 c 0,-0.55563 -0.47625,-1.00542 -1.03188,-1.00542 z"
         id="path28"
         style="fill:#0aa4b4;fill-opacity:1;stroke-width:0.210747" />
      <g
         id="g42"
         transform="matrix(0.26458333,0,0,0.26458333,-64.643506,-35.961497)"
         style="stroke-width:0.796525">
		<path
   class="st3"
   d="m 1106,298 c 0.4,0 0.7,0 1,0.1 0.3,0.1 0.5,0.2 0.8,0.3 0.2,0.1 0.4,0.3 0.6,0.5 0.2,0.2 0.3,0.5 0.5,0.9 0.8,1.6 1.7,3.5 2.6,5.6 0.9,2.1 1.7,4.3 2.6,6.7 0.9,2.3 1.7,4.7 2.5,7.1 0.8,2.4 1.6,4.7 2.3,7 0.7,2.2 1.3,4.3 1.9,6.3 0.6,1.9 1,3.6 1.4,5 0.2,0.8 0.2,1.3 0,1.5 -0.2,0.3 -0.6,0.4 -1.2,0.5 l -3.5,0.1 c -0.4,0 -0.6,0 -0.9,0 -0.2,0 -0.4,-0.1 -0.6,-0.2 -0.1,-0.1 -0.3,-0.3 -0.3,-0.5 -0.1,-0.2 -0.2,-0.5 -0.3,-0.9 -0.2,-0.8 -0.5,-2 -0.9,-3.4 -0.4,-1.5 -0.9,-3.2 -1.4,-5.1 -0.6,-1.9 -1.2,-3.9 -1.9,-6.1 -0.7,-2.2 -1.4,-4.4 -2.2,-6.6 -0.8,-2.2 -1.6,-4.4 -2.4,-6.5 -0.8,-2.1 -1.6,-4.1 -2.5,-5.8 h -1.2 c -0.5,0.9 -0.9,2 -1.5,3.3 -0.5,1.3 -1.1,2.7 -1.6,4.2 -0.6,1.5 -1.1,3.1 -1.7,4.7 -0.6,1.7 -1.1,3.3 -1.7,5 -0.5,1.7 -1.1,3.3 -1.6,4.9 -0.5,1.6 -1,3.1 -1.4,4.6 -0.4,1.4 -0.8,2.7 -1.1,3.9 -0.3,1.2 -0.6,2.2 -0.7,2.9 -0.1,0.4 -0.2,0.7 -0.3,0.9 -0.1,0.2 -0.2,0.4 -0.4,0.5 -0.1,0.1 -0.3,0.2 -0.5,0.2 -0.2,0 -0.5,0 -0.8,0 l -3.7,-0.1 c -0.7,0 -1.1,-0.2 -1.2,-0.4 -0.1,-0.2 -0.1,-0.7 0,-1.5 0.3,-1.2 0.7,-2.8 1.2,-4.7 0.5,-1.9 1.1,-3.9 1.8,-6.2 0.7,-2.2 1.4,-4.6 2.3,-7.1 0.8,-2.5 1.7,-4.9 2.5,-7.3 0.9,-2.4 1.8,-4.7 2.7,-6.8 0.9,-2.2 1.8,-4.1 2.6,-5.7 0.2,-0.4 0.4,-0.6 0.5,-0.9 0.2,-0.2 0.4,-0.4 0.6,-0.6 0.2,-0.1 0.5,-0.3 0.7,-0.3 0.3,-0.1 0.6,-0.1 1,-0.1 h 5.4 z"
   id="path30"
   style="fill:#ffffff;stroke-width:0.796525" />

		<path
   class="st3"
   d="m 1136.9,303.7 c -0.4,0 -0.7,0 -1,-0.1 -0.3,-0.1 -0.5,-0.2 -0.6,-0.3 -0.1,-0.1 -0.3,-0.4 -0.3,-0.6 -0.1,-0.3 -0.1,-0.6 -0.1,-1 v -1.5 c 0,-0.4 0,-0.7 0.1,-1 0.1,-0.2 0.2,-0.4 0.3,-0.6 0.1,-0.1 0.3,-0.3 0.6,-0.3 0.3,-0.1 0.6,-0.1 1,-0.1 h 26.4 c 0.8,0 1.3,0.1 1.6,0.4 0.3,0.3 0.4,0.8 0.4,1.6 v 1.5 c 0,0.4 0,0.7 -0.1,1 -0.1,0.3 -0.2,0.5 -0.3,0.6 -0.1,0.1 -0.4,0.3 -0.6,0.3 -0.3,0.1 -0.6,0.1 -1,0.1 h -9.9 v 33.9 c 0,0.4 0,0.7 -0.1,1 -0.1,0.3 -0.2,0.5 -0.3,0.6 -0.1,0.1 -0.4,0.3 -0.6,0.3 -0.3,0.1 -0.6,0.1 -1,0.1 h -2.5 c -0.4,0 -0.7,0 -1,-0.1 -0.3,-0.1 -0.5,-0.2 -0.6,-0.3 -0.1,-0.1 -0.3,-0.4 -0.3,-0.6 -0.1,-0.3 -0.1,-0.6 -0.1,-1 v -33.9 z"
   id="path32"
   style="fill:#ffffff;stroke-width:0.796525" />

		<path
   class="st3"
   d="m 1217,319 c 0,3.7 -0.5,6.8 -1.5,9.5 -1,2.7 -2.3,4.9 -4.1,6.6 -1.7,1.7 -3.7,3 -6,3.9 -2.3,0.8 -4.8,1.3 -7.5,1.2 -2.8,0 -5.3,-0.4 -7.7,-1.3 -2.4,-0.9 -4.4,-2.2 -6.1,-3.9 -1.7,-1.7 -3.1,-3.9 -4.1,-6.6 -1,-2.6 -1.5,-5.7 -1.5,-9.3 0,-3.6 0.5,-6.7 1.5,-9.4 1,-2.7 2.3,-4.9 4,-6.7 1.7,-1.8 3.8,-3.1 6.1,-4 2.4,-0.9 4.9,-1.3 7.7,-1.3 2.7,0 5.3,0.5 7.6,1.4 2.3,0.9 4.4,2.2 6.1,4 1.7,1.8 3,4 4,6.7 1,2.6 1.5,5.7 1.5,9.2 z m -19,-15.9 c -2.2,0 -4.1,0.4 -5.7,1.2 -1.6,0.8 -3,2 -4,3.4 -1.1,1.4 -1.9,3.1 -2.4,5.1 -0.5,1.9 -0.8,4 -0.8,6.2 0,2.1 0.2,4 0.7,5.9 0.5,1.9 1.3,3.5 2.3,5 1.1,1.5 2.4,2.6 4,3.5 1.6,0.9 3.6,1.3 5.8,1.3 2,0 3.8,-0.4 5.4,-1.1 1.6,-0.8 2.9,-1.8 4,-3.2 1.1,-1.4 1.9,-3 2.5,-5 0.6,-1.9 0.8,-4.1 0.8,-6.5 0,-2.3 -0.3,-4.3 -0.8,-6.3 -0.5,-1.9 -1.3,-3.6 -2.4,-5 -1.1,-1.4 -2.4,-2.5 -4,-3.3 -1.5,-0.8 -3.4,-1.2 -5.4,-1.2 z"
   id="path34"
   style="fill:#ffffff;stroke-width:0.796525" />

		<path
   class="st3"
   d="m 1237.3,339.6 c -0.7,0 -1.2,-0.1 -1.6,-0.4 -0.3,-0.3 -0.5,-0.8 -0.5,-1.5 v -37.4 c 0,-0.4 0,-0.7 0.1,-1 0.1,-0.3 0.2,-0.5 0.3,-0.6 0.1,-0.1 0.4,-0.3 0.6,-0.3 0.3,-0.1 0.6,-0.1 1,-0.1 h 2.6 c 0.4,0 0.7,0 1,0.1 0.3,0.1 0.5,0.2 0.6,0.3 0.1,0.1 0.2,0.4 0.3,0.6 0,0.3 0.1,0.6 0.1,1 v 34 h 15.1 c 0.8,0 1.3,0.1 1.6,0.4 0.3,0.3 0.4,0.8 0.4,1.6 v 1.5 c 0,0.4 0,0.7 -0.1,1 -0.1,0.3 -0.2,0.5 -0.3,0.6 -0.1,0.1 -0.4,0.3 -0.6,0.3 -0.3,0.1 -0.6,0.1 -1,0.1 h -19.6 z"
   id="path36"
   style="fill:#ffffff;stroke-width:0.796525" />

		<path
   class="st3"
   d="m 1272,311.4 c -0.8,-1.3 -1.5,-2.6 -2.1,-3.8 -0.7,-1.3 -1.3,-2.4 -1.8,-3.4 -0.5,-1 -1,-1.9 -1.3,-2.6 -0.4,-0.7 -0.6,-1.2 -0.7,-1.4 -0.3,-0.7 -0.4,-1.2 -0.2,-1.5 0.1,-0.2 0.6,-0.4 1.3,-0.4 l 3.8,-0.1 c 0.7,-0.1 1.2,0 1.5,0.2 0.3,0.2 0.6,0.7 0.9,1.5 0.1,0.2 0.2,0.6 0.5,1.2 0.3,0.6 0.6,1.3 1,2.1 0.4,0.8 0.8,1.7 1.3,2.6 0.5,0.9 0.9,1.8 1.4,2.7 0.4,0.8 0.9,1.7 1.4,2.6 0.5,0.9 1,1.8 1.5,2.6 0.5,0.8 1,1.6 1.5,2.3 0.5,0.7 0.8,1.2 1.2,1.6 h 0.3 c 0.3,-0.4 0.7,-0.9 1.1,-1.6 0.4,-0.7 0.9,-1.4 1.4,-2.3 0.5,-0.8 1,-1.7 1.5,-2.6 0.5,-0.9 1,-1.8 1.4,-2.6 0.5,-0.9 0.9,-1.7 1.4,-2.6 0.4,-0.9 0.9,-1.7 1.2,-2.5 0.4,-0.8 0.7,-1.5 1,-2.1 0.3,-0.6 0.5,-1.1 0.6,-1.4 0.2,-0.4 0.3,-0.7 0.4,-0.9 0.1,-0.2 0.3,-0.4 0.5,-0.5 0.2,-0.1 0.4,-0.2 0.6,-0.2 0.2,0 0.6,0 0.9,0 l 3.8,0.1 c 0.8,0 1.2,0.2 1.4,0.4 0.1,0.2 0.1,0.7 -0.3,1.4 -0.2,0.4 -0.4,0.9 -0.8,1.7 -0.4,0.8 -0.8,1.6 -1.3,2.6 -0.5,1 -1.1,2.1 -1.7,3.3 -0.6,1.2 -1.3,2.4 -2,3.7 -1.3,2.3 -2.6,4.4 -4,6.3 -1.4,1.9 -2.8,3.9 -4.1,5.8 v 14.2 c 0,0.4 0,0.7 -0.1,1 -0.1,0.3 -0.2,0.5 -0.3,0.6 -0.1,0.1 -0.4,0.3 -0.6,0.3 -0.3,0.1 -0.6,0.1 -1,0.1 h -2.5 c -0.8,0 -1.3,-0.1 -1.6,-0.4 -0.3,-0.3 -0.4,-0.8 -0.4,-1.5 v -14.3 c -1.2,-1.7 -2.6,-3.6 -4,-5.6 -1.4,-2.3 -2.7,-4.4 -4,-6.6 z"
   id="path38"
   style="fill:#ffffff;stroke-width:0.796525" />

		<path
   class="st3"
   d="m 1319.5,339.6 c -0.4,0 -0.7,0 -1,-0.1 -0.3,-0.1 -0.5,-0.2 -0.6,-0.3 -0.1,-0.1 -0.3,-0.4 -0.3,-0.6 -0.1,-0.3 -0.1,-0.6 -0.1,-1 v -37.4 c 0,-0.4 0,-0.7 0.1,-1 0.1,-0.2 0.2,-0.4 0.3,-0.6 0.1,-0.1 0.4,-0.3 0.6,-0.3 0.3,-0.1 0.6,-0.1 1,-0.1 h 21 c 0.7,0 1.2,0.1 1.4,0.4 0.2,0.3 0.4,0.7 0.4,1.2 v 2.1 c 0,0.6 -0.1,1.1 -0.4,1.3 -0.2,0.2 -0.7,0.4 -1.4,0.4 H 1324 V 316 h 13.5 c 0.8,0 1.3,0.1 1.6,0.4 0.3,0.2 0.4,0.7 0.4,1.3 v 1.8 c 0,0.7 -0.1,1.1 -0.4,1.4 -0.3,0.2 -0.8,0.3 -1.6,0.3 H 1324 v 13 h 16.7 c 0.8,0 1.3,0.1 1.6,0.4 0.3,0.2 0.4,0.7 0.4,1.4 v 2.1 c 0,0.7 -0.1,1.1 -0.4,1.3 -0.3,0.2 -0.8,0.3 -1.6,0.3 h -21.2 z"
   id="path40"
   style="fill:#ffffff;stroke-width:0.796525" />

	</g>
    </g>
  </g>
</svg>
