<?xml version="1.0" encoding="UTF-8"?>
<!-- Created with Inkscape (http://www.inkscape.org/) -->
<svg width="1323" height="698" version="1.1" viewBox="0 0 1323 698" xmlns="http://www.w3.org/2000/svg" xmlns:cc="http://creativecommons.org/ns#" xmlns:dc="http://purl.org/dc/elements/1.1/" xmlns:rdf="http://www.w3.org/1999/02/22-rdf-syntax-ns#">
 <metadata>
  <rdf:RDF>
   <cc:Work rdf:about="">
    <dc:format>image/svg+xml</dc:format>
    <dc:type rdf:resource="http://purl.org/dc/dcmitype/StillImage"/>
   </cc:Work>
  </rdf:RDF>
 </metadata>
 <g transform="translate(0 -398)">
  <g transform="matrix(1.07 0 0 1.07 -1.76 396)" stroke-width=".938">
   <g id="container" stroke-width=".938">
    <g stroke-width=".938">
     <path id="shape" transform="translate(311 329)" d="m-148 318q-4.7-15.6-19.6-46.1-24.2-45.8-26.3-52.5-2.6-10.9 35.7-26.4 44-18.9 54.8-33.1 37.1-52.7 70.9-128 42.9-95 32.4-134-8.8-33.8-39.2-49.3-30.3-16.9-64.1-8.2-37.8 10.2-70.9 35.9-22.9 15.6-45.9 41.2-20.2 21.5-22.3 21.5-16.2 4.7-26.3-33.1-7.4-28.9-13.5-42.4-2.1-5.4-13.5-23.6-10.1-14.9-12.9-23.1-1.2-6 5.4-14 32.4-39.2 92.6-72.3 56-30.5 111-45.2 90.5-24.3 161-0.7 84.4 27.7 107 113 30.3 115-101 314 121-39.2 191-58.2 14.8-4 19.6 13.5 2.8 10.9 5.4 34.5 3.3 21.6 6.8 33.1l8.8 36.4q6.6 24.4 9.4 36.4 3.4 11.6-12.2 15.6-6 1.4-46.6 3.4-46.5 2-164 33.7-37.1 9.5-109 32.4-71.5 23.7-107 33.8-2.4 0.6-4.6 0.6-8.7 0-13-8.6z" fill="#666"/>
     <path transform="translate(833 334)" d="m351 167v-157q0.2-19-5.3-26.3-5.6-7.1-19.3-6.7-17.2 0.1-35 7.4-17.8 7.5-42 21l0.4 162h-57.9v-233h48.5l3.7 34.8q25-19.5 50-30.2 25.1-10.9 50.7-11.1 31.3 0.2 47.7 16.7 16.2 16.5 16.5 48v174zm-283 0v-233h57.5v233zm-188 0q-8.4-0.1-14.3-4.7-5.8-4.4-7.5-12.5l-41.3-228q-1.8-9.8-3.4-19.3l-2.8-19.2h-9.6q-1.4 9.7-2.9 19.4t-3.3 19.1l-40.8 228q-1.7 8.1-7.7 12.5-6.3 4.6-14.6 4.7h-61.7q-8.4-0.3-14.3-4.7t-7.5-12.1l-56.6-311h61.7l39 239q1.8 10.4 3 21.4l2.3 23.4h10q1.6-11.9 3.4-23 1.9-11.1 4-21.8l40.3-220q1.7-8.9 7.2-13.8 5.9-5 14.9-5.3h57.7q8.4 0.3 14.2 5.3 5.8 4.9 7.4 13.8l40.4 220q2 11.1 3.7 22.5 1.8 11.1 2.7 21.8h10.5l2.8-22.1q1.2-11.1 2.6-21.7l39.3-240h61.6l-56.5 311q-1.8 7.7-7.6 12.1t-14.1 4.7zm203-274q-8.3 0-12.5-4.1-4.1-4.2-4.1-12.5v-26q0-7.9 4.1-12.4 4.2-4.4 12.5-4.4h26.5q8.5 0 12.8 4.4 3.9 4.5 3.9 12.4v26q0 8.3-3.9 12.5-4.3 4.1-12.8 4.1z" fill="#6f89eb"/>
    </g>
   </g>
  </g>
 </g>
</svg>
