<?xml version="1.0" encoding="UTF-8"?>
<!-- Created with Inkscape (http://www.inkscape.org/) -->
<svg width="375" height="60" version="1.1" viewBox="0 0 375 60" xmlns="http://www.w3.org/2000/svg">
 <g transform="matrix(1.26 0 0 1.26 -17.6 -30.8)">
  <g transform="matrix(.479 0 0 .479 -23.1 -326)" stroke-width=".164">
   <g transform="matrix(3.57 0 0 -3.57 114 759)" fill="#0aa4b4">
    <path d="m0 0c0.127-2e-3 0.222-0.119 0.198-0.244-0.293-1.54-1.05-2.91-2.26-3.9-1.21-0.984-2.71-1.44-4.28-1.41-0.128 2e-3 -0.222 0.119-0.199 0.244 0.293 1.54 1.05 2.91 2.26 3.9 1.21 0.984 2.71 1.44 4.28 1.41" fill="#0aa4b4"/>
   </g>
   <g fill="#757474">
    <g transform="matrix(3.57 0 0 -3.57 98.1 793)">
     <path d="m0 0h-0.953c-0.837 0-1.52 0.678-1.52 1.52v6.38c0 0.793-0.643 1.44-1.44 1.44-0.792 0-1.44-0.642-1.44-1.44v-6.41c0-2.41 1.95-4.36 4.36-4.36h0.979c0.793 0 1.44 0.643 1.44 1.44 0 0.792-0.642 1.44-1.44 1.44" fill="#757474"/>
    </g>
    <g transform="matrix(3.57 0 0 -3.57 191 759)">
     <path d="m0 0h-2.34c-2.41 0-4.36-1.95-4.36-4.36v-6.41c0-0.793 0.643-1.44 1.44-1.44 0.792 0 1.44 0.642 1.44 1.44v6.38c0 0.837 0.678 1.52 1.52 1.52h2.31c0.793 0 1.44 0.643 1.44 1.44 0 0.792-0.642 1.44-1.44 1.44" fill="#757474"/>
    </g>
    <g transform="matrix(3.57 0 0 -3.57 413 793)">
     <path d="m0 0h-4.77l5.81 6.91c0.745 0.902 0.153 2.42-1.04 2.42h-7.76c-0.798 0-1.44-0.65-1.44-1.45 7e-3 -0.788 0.648-1.42 1.44-1.42h4.68l-5.78-6.87c-0.193-0.236-0.298-0.515-0.319-0.798-0.013-0.078-0.02-0.159-0.019-0.241 7e-3 -0.788 0.648-1.42 1.44-1.42h7.76c0.793 0 1.37 0.643 1.37 1.44 0 0.792-0.575 1.44-1.37 1.44" fill="#757474"/>
    </g>
    <g transform="matrix(3.57 0 0 -3.57 236 794)">
     <path d="m0 0-4.32 3.1 4.2 3.7c0.601 0.517 0.67 1.42 0.153 2.02s-1.42 0.669-2.02 0.153l-4.55-4v6.54c0 0.792-0.643 1.44-1.44 1.44-0.793 0-1.44-0.643-1.44-1.44v-12.7c0-0.798 0.651-1.44 1.45-1.44 0.788 7e-3 1.42 0.648 1.42 1.44v2.32l4.88-3.49c0.648-0.465 1.55-0.311 2.01 0.342 0.453 0.644 0.302 1.53-0.339 1.99" fill="#757474"/>
    </g>
    <g transform="matrix(3.57 0 0 -3.57 330 760)">
     <path d="m0 0c-0.708 0.358-1.57 0.074-1.93-0.634l-3.56-7.04-3.56 7.04c-0.357 0.708-1.22 0.992-1.93 0.634-0.708-0.358-0.992-1.22-0.634-1.93l4.72-9.34c0.272-0.538 0.837-0.831 1.4-0.783 0.567-0.048 1.13 0.245 1.4 0.783l4.72 9.34c0.357 0.708 0.074 1.57-0.634 1.93" fill="#757474"/>
    </g>
    <g transform="matrix(3.57 0 0 -3.57 154 759)">
     <path d="m0 0c-0.793 0-1.44-0.643-1.44-1.44v-6.38c0-0.836-0.679-1.51-1.52-1.51h-2.31c-0.837 0-1.52 0.678-1.52 1.51v6.38c0 0.792-0.643 1.44-1.44 1.44-0.792 0-1.44-0.643-1.44-1.44v-6.41c0-2.41 1.95-4.36 4.36-4.36h2.36c2.41 0 4.36 1.95 4.36 4.36v6.41c0 0.792-0.642 1.44-1.44 1.44" fill="#757474"/>
    </g>
    <g transform="matrix(3.57 0 0 -3.57 278 759)">
     <path d="m0 0c-0.793 0-1.44-0.643-1.44-1.44v-6.38c0-0.836-0.679-1.51-1.52-1.51h-2.31c-0.837 0-1.52 0.678-1.52 1.51v6.38c0 0.792-0.643 1.44-1.44 1.44-0.792 0-1.44-0.643-1.44-1.44v-6.41c0-2.41 1.95-4.36 4.36-4.36h2.36c2.41 0 4.36 1.95 4.36 4.36v6.41c0 0.792-0.642 1.44-1.44 1.44" fill="#757474"/>
    </g>
    <g transform="matrix(3.57 0 0 -3.57 364 793)">
     <path d="m0 0h-4.59c-0.525 0-0.951 0.426-0.951 0.951s0.426 0.951 0.951 0.951h4.59zm-1.75 9.41h-3.62c-0.771 0-1.4-0.625-1.4-1.4 0-0.771 0.626-1.4 1.4-1.4h3.56c0.998 0 1.81-0.81 1.81-1.81v-0.11h-4.66c-2.03 0-3.68-1.65-3.68-3.68v-0.064c0-2.07 1.68-3.74 3.74-3.74h5.05c1.29 0 2.34 1.05 2.34 2.34v5.32c0 2.51-2.04 4.55-4.55 4.55" fill="#757474"/>
    </g>
   </g>
  </g>
  <path class="st1" d="m311 38.1h-125v-11.7c0-0.529-0.397-0.979-0.9-1.01-0.556-0.0264-1.01 0.423-1.01 0.952v44.2c0 0.529 0.397 0.979 0.9 1.01 0.556 0.0265 1.01-0.423 1.01-0.952v-11.8h125c0.556 0 1.01-0.45 1.01-1.01v-18.7c0-0.556-0.476-1.01-1.03-1.01z" fill="#0aa4b4" stroke-width=".211"/>
  <g transform="matrix(.265 0 0 .265 -64.6 -36)" fill="#fff" stroke-width=".797">
   <path class="st3" d="m1106 298c0.4 0 0.7 0 1 0.1s0.5 0.2 0.8 0.3c0.2 0.1 0.4 0.3 0.6 0.5s0.3 0.5 0.5 0.9c0.8 1.6 1.7 3.5 2.6 5.6s1.7 4.3 2.6 6.7c0.9 2.3 1.7 4.7 2.5 7.1s1.6 4.7 2.3 7c0.7 2.2 1.3 4.3 1.9 6.3 0.6 1.9 1 3.6 1.4 5 0.2 0.8 0.2 1.3 0 1.5-0.2 0.3-0.6 0.4-1.2 0.5l-3.5 0.1h-0.9c-0.2 0-0.4-0.1-0.6-0.2-0.1-0.1-0.3-0.3-0.3-0.5-0.1-0.2-0.2-0.5-0.3-0.9-0.2-0.8-0.5-2-0.9-3.4-0.4-1.5-0.9-3.2-1.4-5.1-0.6-1.9-1.2-3.9-1.9-6.1s-1.4-4.4-2.2-6.6-1.6-4.4-2.4-6.5-1.6-4.1-2.5-5.8h-1.2c-0.5 0.9-0.9 2-1.5 3.3-0.5 1.3-1.1 2.7-1.6 4.2-0.6 1.5-1.1 3.1-1.7 4.7-0.6 1.7-1.1 3.3-1.7 5-0.5 1.7-1.1 3.3-1.6 4.9s-1 3.1-1.4 4.6c-0.4 1.4-0.8 2.7-1.1 3.9s-0.6 2.2-0.7 2.9c-0.1 0.4-0.2 0.7-0.3 0.9s-0.2 0.4-0.4 0.5c-0.1 0.1-0.3 0.2-0.5 0.2h-0.8l-3.7-0.1c-0.7 0-1.1-0.2-1.2-0.4s-0.1-0.7 0-1.5c0.3-1.2 0.7-2.8 1.2-4.7s1.1-3.9 1.8-6.2c0.7-2.2 1.4-4.6 2.3-7.1 0.8-2.5 1.7-4.9 2.5-7.3 0.9-2.4 1.8-4.7 2.7-6.8 0.9-2.2 1.8-4.1 2.6-5.7 0.2-0.4 0.4-0.6 0.5-0.9l0.6-0.6c0.2-0.1 0.5-0.3 0.7-0.3 0.3-0.1 0.6-0.1 1-0.1h5.4z"/>
   <path class="st3" d="m1137 304c-0.4 0-0.7 0-1-0.1s-0.5-0.2-0.6-0.3-0.3-0.4-0.3-0.6c-0.1-0.3-0.1-0.6-0.1-1v-1.5c0-0.4 0-0.7 0.1-1l0.3-0.6c0.1-0.1 0.3-0.3 0.6-0.3 0.3-0.1 0.6-0.1 1-0.1h26.4c0.8 0 1.3 0.1 1.6 0.4s0.4 0.8 0.4 1.6v1.5c0 0.4 0 0.7-0.1 1s-0.2 0.5-0.3 0.6-0.4 0.3-0.6 0.3c-0.3 0.1-0.6 0.1-1 0.1h-9.9v33.9c0 0.4 0 0.7-0.1 1s-0.2 0.5-0.3 0.6-0.4 0.3-0.6 0.3c-0.3 0.1-0.6 0.1-1 0.1h-2.5c-0.4 0-0.7 0-1-0.1s-0.5-0.2-0.6-0.3-0.3-0.4-0.3-0.6c-0.1-0.3-0.1-0.6-0.1-1v-33.9z"/>
   <path class="st3" d="m1217 319c0 3.7-0.5 6.8-1.5 9.5s-2.3 4.9-4.1 6.6c-1.7 1.7-3.7 3-6 3.9-2.3 0.8-4.8 1.3-7.5 1.2-2.8 0-5.3-0.4-7.7-1.3s-4.4-2.2-6.1-3.9-3.1-3.9-4.1-6.6c-1-2.6-1.5-5.7-1.5-9.3s0.5-6.7 1.5-9.4 2.3-4.9 4-6.7 3.8-3.1 6.1-4c2.4-0.9 4.9-1.3 7.7-1.3 2.7 0 5.3 0.5 7.6 1.4s4.4 2.2 6.1 4 3 4 4 6.7c1 2.6 1.5 5.7 1.5 9.2zm-19-15.9c-2.2 0-4.1 0.4-5.7 1.2s-3 2-4 3.4c-1.1 1.4-1.9 3.1-2.4 5.1-0.5 1.9-0.8 4-0.8 6.2 0 2.1 0.2 4 0.7 5.9s1.3 3.5 2.3 5c1.1 1.5 2.4 2.6 4 3.5s3.6 1.3 5.8 1.3c2 0 3.8-0.4 5.4-1.1 1.6-0.8 2.9-1.8 4-3.2s1.9-3 2.5-5c0.6-1.9 0.8-4.1 0.8-6.5 0-2.3-0.3-4.3-0.8-6.3-0.5-1.9-1.3-3.6-2.4-5s-2.4-2.5-4-3.3c-1.5-0.8-3.4-1.2-5.4-1.2z"/>
   <path class="st3" d="m1237 340c-0.7 0-1.2-0.1-1.6-0.4-0.3-0.3-0.5-0.8-0.5-1.5v-37.4c0-0.4 0-0.7 0.1-1s0.2-0.5 0.3-0.6 0.4-0.3 0.6-0.3c0.3-0.1 0.6-0.1 1-0.1h2.6c0.4 0 0.7 0 1 0.1s0.5 0.2 0.6 0.3 0.2 0.4 0.3 0.6c0 0.3 0.1 0.6 0.1 1v34h15.1c0.8 0 1.3 0.1 1.6 0.4s0.4 0.8 0.4 1.6v1.5c0 0.4 0 0.7-0.1 1s-0.2 0.5-0.3 0.6-0.4 0.3-0.6 0.3c-0.3 0.1-0.6 0.1-1 0.1h-19.6z"/>
   <path class="st3" d="m1272 311c-0.8-1.3-1.5-2.6-2.1-3.8-0.7-1.3-1.3-2.4-1.8-3.4s-1-1.9-1.3-2.6c-0.4-0.7-0.6-1.2-0.7-1.4-0.3-0.7-0.4-1.2-0.2-1.5 0.1-0.2 0.6-0.4 1.3-0.4l3.8-0.1c0.7-0.1 1.2 0 1.5 0.2s0.6 0.7 0.9 1.5c0.1 0.2 0.2 0.6 0.5 1.2s0.6 1.3 1 2.1 0.8 1.7 1.3 2.6 0.9 1.8 1.4 2.7c0.4 0.8 0.9 1.7 1.4 2.6s1 1.8 1.5 2.6 1 1.6 1.5 2.3 0.8 1.2 1.2 1.6h0.3c0.3-0.4 0.7-0.9 1.1-1.6s0.9-1.4 1.4-2.3c0.5-0.8 1-1.7 1.5-2.6s1-1.8 1.4-2.6c0.5-0.9 0.9-1.7 1.4-2.6 0.4-0.9 0.9-1.7 1.2-2.5 0.4-0.8 0.7-1.5 1-2.1s0.5-1.1 0.6-1.4c0.2-0.4 0.3-0.7 0.4-0.9s0.3-0.4 0.5-0.5 0.4-0.2 0.6-0.2h0.9l3.8 0.1c0.8 0 1.2 0.2 1.4 0.4 0.1 0.2 0.1 0.7-0.3 1.4-0.2 0.4-0.4 0.9-0.8 1.7l-1.3 2.6c-0.5 1-1.1 2.1-1.7 3.3s-1.3 2.4-2 3.7c-1.3 2.3-2.6 4.4-4 6.3s-2.8 3.9-4.1 5.8v14.2c0 0.4 0 0.7-0.1 1s-0.2 0.5-0.3 0.6-0.4 0.3-0.6 0.3c-0.3 0.1-0.6 0.1-1 0.1h-2.5c-0.8 0-1.3-0.1-1.6-0.4s-0.4-0.8-0.4-1.5v-14.3c-1.2-1.7-2.6-3.6-4-5.6-1.4-2.3-2.7-4.4-4-6.6z"/>
   <path class="st3" d="m1320 340c-0.4 0-0.7 0-1-0.1s-0.5-0.2-0.6-0.3-0.3-0.4-0.3-0.6c-0.1-0.3-0.1-0.6-0.1-1v-37.4c0-0.4 0-0.7 0.1-1l0.3-0.6c0.1-0.1 0.4-0.3 0.6-0.3 0.3-0.1 0.6-0.1 1-0.1h21c0.7 0 1.2 0.1 1.4 0.4s0.4 0.7 0.4 1.2v2.1c0 0.6-0.1 1.1-0.4 1.3-0.2 0.2-0.7 0.4-1.4 0.4h-16.5v12.4h13.5c0.8 0 1.3 0.1 1.6 0.4 0.3 0.2 0.4 0.7 0.4 1.3v1.8c0 0.7-0.1 1.1-0.4 1.4-0.3 0.2-0.8 0.3-1.6 0.3h-13.5v13h16.7c0.8 0 1.3 0.1 1.6 0.4 0.3 0.2 0.4 0.7 0.4 1.4v2.1c0 0.7-0.1 1.1-0.4 1.3s-0.8 0.3-1.6 0.3h-21.2z"/>
  </g>
 </g>
</svg>
